<svg width="26" height="26" viewBox="0 0 26 26" fill="none" xmlns="http://www.w3.org/2000/svg">
<path d="M24.3747 2.78027H1.62466C1.49698 2.78027 1.39252 2.88474 1.39252 3.01242V4.86956C1.39252 4.99724 1.49698 5.1017 1.62466 5.1017H24.3747C24.5023 5.1017 24.6068 4.99724 24.6068 4.86956V3.01242C24.6068 2.88474 24.5023 2.78027 24.3747 2.78027ZM24.3747 20.8874H1.62466C1.49698 20.8874 1.39252 20.9919 1.39252 21.1196V22.9767C1.39252 23.1044 1.49698 23.2088 1.62466 23.2088H24.3747C24.5023 23.2088 24.6068 23.1044 24.6068 22.9767V21.1196C24.6068 20.9919 24.5023 20.8874 24.3747 20.8874ZM24.3747 11.8338H1.62466C1.49698 11.8338 1.39252 11.9383 1.39252 12.066V13.9231C1.39252 14.0508 1.49698 14.1553 1.62466 14.1553H24.3747C24.5023 14.1553 24.6068 14.0508 24.6068 13.9231V12.066C24.6068 11.9383 24.5023 11.8338 24.3747 11.8338Z" fill="white" fill-opacity="0.85"/>
</svg>