 <svg
          width="18"
          height="18"
          viewBox="0 0 18 18"
          fill="none"
          xmlns="http://www.w3.org/2000/svg"
        >
          <path
            d="M8.65252 0C6.30284 0 6.00789 0.00982285 5.08472 0.051384C4.16384 0.0929451 3.53486 0.237274 2.98479 0.448101C2.41557 0.665728 1.93291 0.958164 1.45179 1.43271C0.97067 1.90651 0.674948 2.38332 0.454307 2.94401C0.24056 3.48733 0.0934658 4.10772 0.0513294 5.01601C0.00919297 5.92657 0 6.21674 0 8.53432C0 10.8527 0.00919297 11.1436 0.0513294 12.0534C0.0934658 12.9617 0.24056 13.5821 0.454307 14.1254C0.674948 14.6868 0.97067 15.1621 1.45179 15.6367C1.93291 16.1112 2.41557 16.4037 2.98479 16.6213C3.53486 16.8321 4.16384 16.9764 5.08472 17.018C6.00789 17.0596 6.30284 17.0694 8.65252 17.0694C11.0022 17.0694 11.2972 17.0596 12.2203 17.018C13.1412 16.9764 13.7702 16.8321 14.3203 16.6213C14.8895 16.4037 15.3721 16.1112 15.8533 15.6367C16.3336 15.1621 16.6301 14.6868 16.8515 14.1254C17.0645 13.5821 17.2108 12.9617 17.2537 12.0534C17.2951 11.1436 17.305 10.8527 17.305 8.53432C17.305 6.21674 17.2951 5.92657 17.2537 5.01601C17.2108 4.10772 17.0645 3.48733 16.8515 2.94401C16.6301 2.38332 16.3336 1.90651 15.8533 1.43271C15.3721 0.958164 14.8895 0.665728 14.3203 0.448101C13.7702 0.237274 13.1412 0.0929451 12.2203 0.051384C11.2972 0.00982285 11.0022 0 8.65252 0ZM8.65252 1.53775C10.9631 1.53775 11.2366 1.54606 12.1491 1.58762C12.9926 1.6254 13.4507 1.76444 13.7556 1.88157C14.1594 2.03648 14.4474 2.22086 14.75 2.51934C15.0534 2.81858 15.2411 3.1027 15.3982 3.50093C15.5162 3.80168 15.6571 4.25356 15.6954 5.08553C15.7376 5.98551 15.746 6.25603 15.746 8.53432C15.746 10.8141 15.7376 11.0831 15.6954 11.9831C15.6571 12.8158 15.5162 13.2677 15.3982 13.5685C15.2411 13.9667 15.0534 14.2508 14.75 14.5493C14.4474 14.8478 14.1594 15.0329 13.7556 15.1878C13.4507 15.305 12.9926 15.444 12.1491 15.4818C11.2366 15.5226 10.9631 15.5316 8.65252 15.5316C6.34191 15.5316 6.06841 15.5226 5.15597 15.4818C4.31247 15.444 3.85433 15.305 3.54942 15.1878C3.14568 15.0329 2.85762 14.8478 2.55423 14.5493C2.25162 14.2508 2.06392 13.9667 1.90686 13.5685C1.78888 13.2677 1.64715 12.8158 1.60884 11.9831C1.56747 11.0831 1.55905 10.8141 1.55905 8.53432C1.55905 6.25603 1.56747 5.98551 1.60884 5.08553C1.64715 4.25356 1.78888 3.80168 1.90686 3.50093C2.06392 3.1027 2.25162 2.81858 2.55423 2.51934C2.85762 2.22086 3.14568 2.03648 3.54942 1.88157C3.85433 1.76444 4.31247 1.6254 5.15597 1.58762C6.06841 1.54606 6.34191 1.53775 8.65252 1.53775Z"
            fill="white"
          />
          <path
            d="M8.65258 11.3794C7.05906 11.3794 5.76815 10.1054 5.76815 8.53439C5.76815 6.96339 7.05906 5.69012 8.65258 5.69012C10.2453 5.69012 11.537 6.96339 11.537 8.53439C11.537 10.1054 10.2453 11.3794 8.65258 11.3794ZM8.65258 4.15237C6.19871 4.15237 4.20911 6.11404 4.20911 8.53439C4.20911 10.9547 6.19871 12.9172 8.65258 12.9172C11.1065 12.9172 13.0961 10.9547 13.0961 8.53439C13.0961 6.11404 11.1065 4.15237 8.65258 4.15237Z"
            fill="white"
          />
          <path
            d="M14.3098 3.97899C14.3098 4.54422 13.8448 5.0029 13.2717 5.0029C12.6979 5.0029 12.2328 4.54422 12.2328 3.97899C12.2328 3.41301 12.6979 2.95508 13.2717 2.95508C13.8448 2.95508 14.3098 3.41301 14.3098 3.97899Z"
            fill="white"
          />
        </svg>