<svg width="39" height="38" viewBox="0 0 39 38" fill="none" xmlns="http://www.w3.org/2000/svg">
<path d="M35.28 7.65731C35.1596 7.92398 34.9867 8.15066 34.7732 8.33732C34.5596 8.51066 34.3066 8.6573 33.9998 8.75064C33.706 8.84397 33.3727 8.89732 32.9998 8.89732C32.8128 8.89732 32.6268 8.88398 32.4528 8.85864C32.28 8.83064 32.1195 8.80532 31.9867 8.76398C31.8399 8.73732 31.7326 8.69731 31.6399 8.65731C31.5467 8.61731 31.493 8.59065 31.4664 8.56398C31.4399 8.53732 31.4134 8.51064 31.3992 8.48397C31.3862 8.4573 31.3862 8.41733 31.3727 8.37733C31.3596 8.33733 31.3596 8.28398 31.3596 8.23065C31.3596 8.16398 31.3462 8.09731 31.3462 8.01864C31.3462 7.92397 31.3596 7.844 31.3596 7.77733C31.3727 7.724 31.3727 7.67065 31.3992 7.63198C31.4134 7.59065 31.4263 7.56397 31.4399 7.55064C31.4664 7.5373 31.4795 7.52531 31.5066 7.52531C31.5467 7.52531 31.6003 7.53733 31.6664 7.57866C31.7195 7.61733 31.8128 7.65732 31.9195 7.69732C32.0263 7.75065 32.1596 7.79065 32.32 7.83065C32.4664 7.85865 32.6534 7.88397 32.8664 7.88397C33.0528 7.88397 33.2263 7.85864 33.3862 7.8173C33.5331 7.7773 33.6664 7.72398 33.7732 7.63198C33.88 7.55065 33.9602 7.444 34.0128 7.31066C34.08 7.192 34.1066 7.03064 34.1066 6.85864C34.1066 6.69731 34.08 6.56398 34.0263 6.43065C33.9867 6.31065 33.9066 6.21731 33.7998 6.12398C33.706 6.04398 33.5732 5.99066 33.3992 5.93732C33.2399 5.89732 33.0394 5.88397 32.7998 5.88397C32.6134 5.88397 32.4399 5.884 32.2935 5.912C32.1331 5.924 31.9998 5.93732 31.8664 5.93732C31.7732 5.93732 31.693 5.91199 31.6664 5.87066C31.6134 5.81732 31.6003 5.73732 31.6003 5.60399V2.88397C31.6003 2.76397 31.6268 2.67064 31.6795 2.6173C31.7195 2.55064 31.7998 2.52531 31.9195 2.52531H34.88C34.9066 2.52531 34.9336 2.5373 34.9602 2.55064C34.9867 2.57864 35.0128 2.604 35.0263 2.644C35.0393 2.69733 35.0528 2.75064 35.0659 2.8173C35.0659 2.88397 35.08 2.96532 35.08 3.07066C35.08 3.25732 35.0528 3.40397 35.0263 3.48397C34.9867 3.57864 34.9467 3.6173 34.88 3.6173H32.6534V4.95064C32.7596 4.9373 32.88 4.93732 32.9867 4.93732C33.1066 4.92399 33.2134 4.92398 33.3462 4.92398C33.6795 4.92398 33.9732 4.96533 34.2399 5.04399C34.5066 5.124 34.7195 5.24531 34.9066 5.39064C35.08 5.55064 35.2134 5.73732 35.3066 5.96532C35.3992 6.19198 35.4528 6.4573 35.4528 6.75064C35.4528 7.0973 35.3992 7.39064 35.28 7.65731ZM21.0394 8.39064C20.8263 8.55064 20.5732 8.68532 20.28 8.76398C19.9867 8.85865 19.6534 8.89732 19.3066 8.89732C19.093 8.89732 18.893 8.884 18.706 8.844C18.52 8.81733 18.3596 8.77732 18.2134 8.73732C18.0659 8.69732 17.9467 8.64398 17.8534 8.59064C17.7596 8.55064 17.693 8.51064 17.6664 8.48397C17.6399 8.4573 17.6134 8.43066 17.6003 8.40399C17.5862 8.36399 17.5732 8.32397 17.5732 8.28397C17.5596 8.2453 17.5467 8.19198 17.5467 8.12398C17.5331 8.05731 17.5331 7.9773 17.5331 7.88397C17.5331 7.72397 17.5467 7.61732 17.5732 7.56398C17.6003 7.49732 17.6399 7.47199 17.693 7.47199C17.7195 7.47199 17.7732 7.49732 17.8534 7.53732C17.9336 7.57866 18.0394 7.63199 18.1596 7.67066C18.28 7.72399 18.4263 7.7773 18.5862 7.8173C18.7596 7.85864 18.9467 7.88397 19.1462 7.88397C19.3331 7.88397 19.4795 7.85864 19.6134 7.8173C19.7596 7.7773 19.8664 7.71066 19.9602 7.644C20.0528 7.564 20.1331 7.47198 20.1732 7.36398C20.2263 7.25732 20.2528 7.13866 20.2528 7.00399C20.2528 6.85866 20.2134 6.72397 20.1596 6.6173C20.1066 6.4973 20.0263 6.404 19.9066 6.31066C19.7998 6.23066 19.6664 6.16398 19.493 6.12398C19.32 6.08398 19.1195 6.05731 18.893 6.05731H18.3462C18.3066 6.05731 18.28 6.05733 18.2399 6.044C18.2134 6.03066 18.1867 6.004 18.1732 5.97733C18.1596 5.93733 18.1462 5.88397 18.1331 5.8173C18.1195 5.76397 18.1195 5.68533 18.1195 5.57866C18.1195 5.484 18.1195 5.40397 18.1331 5.35197C18.1462 5.28397 18.1596 5.2453 18.1732 5.2173C18.1867 5.1773 18.2134 5.15064 18.2399 5.15064C18.267 5.13864 18.2935 5.12398 18.3331 5.12398H18.88C19.0659 5.12398 19.2399 5.09731 19.3862 5.05731C19.5331 5.01864 19.6534 4.95066 19.7467 4.87066C19.8399 4.79066 19.9195 4.69733 19.9732 4.57866C20.0263 4.472 20.0528 4.33732 20.0528 4.20399C20.0528 4.09732 20.0263 3.99065 19.9998 3.89732C19.9602 3.80532 19.9066 3.72398 19.8399 3.65731C19.7732 3.57864 19.6795 3.5253 19.5732 3.48397C19.4664 3.44397 19.3331 3.43065 19.1867 3.43065C19.0128 3.43065 18.8534 3.45732 18.706 3.49732C18.5596 3.55065 18.4263 3.60399 18.3066 3.67066C18.1998 3.72399 18.093 3.77732 18.0128 3.83065C17.9336 3.88398 17.8664 3.912 17.8263 3.912C17.7998 3.912 17.7862 3.91198 17.7596 3.89732C17.7467 3.88398 17.7326 3.85865 17.7195 3.83065C17.706 3.79065 17.693 3.75064 17.6795 3.68531V3.25731C17.6795 3.20398 17.693 3.15064 17.693 3.12398C17.706 3.08398 17.7195 3.05732 17.7326 3.03065C17.7467 3.00398 17.7732 2.97732 17.7998 2.93732C17.8399 2.91199 17.9066 2.87066 17.9998 2.80532C18.1066 2.73732 18.2263 2.68532 18.3862 2.63198C18.5331 2.56398 18.706 2.5253 18.9066 2.48397C19.1066 2.43064 19.32 2.4173 19.5467 2.4173C19.8534 2.4173 20.1195 2.45731 20.3596 2.52531C20.5862 2.59064 20.7862 2.69732 20.9467 2.83065C21.1066 2.96532 21.2263 3.12398 21.3066 3.32398C21.3862 3.52531 21.4263 3.73733 21.4263 3.97733C21.4263 4.17733 21.4134 4.352 21.3596 4.51066C21.3066 4.68533 21.2399 4.83064 21.1462 4.95064C21.0528 5.08397 20.9336 5.19197 20.7998 5.28397C20.6534 5.3773 20.493 5.44397 20.3066 5.48397V5.49732C20.5331 5.52532 20.7195 5.57866 20.9066 5.67066C21.08 5.75066 21.2263 5.85864 21.3462 5.99064C21.4664 6.12398 21.5596 6.27065 21.6268 6.43065C21.6795 6.59065 21.7195 6.76397 21.7195 6.95064C21.7195 7.27064 21.6534 7.53733 21.5331 7.77733C21.4134 8.03066 21.2528 8.23064 21.0394 8.39064ZM21.7467 33.0186C21.7998 33.0186 21.8534 33.0573 21.88 33.1387C21.9195 33.204 21.9467 33.3373 21.9467 33.5253C21.9467 33.6853 21.9195 33.8173 21.893 33.8973C21.8534 33.9906 21.8128 34.0306 21.7467 34.0306H21.1998V35.164C21.1998 35.192 21.1867 35.2173 21.1596 35.2453C21.1462 35.2707 21.1066 35.284 21.0659 35.3107C21.0128 35.324 20.9602 35.3373 20.88 35.3373C20.7998 35.352 20.693 35.352 20.5732 35.352C20.4664 35.352 20.3596 35.352 20.28 35.3373C20.1998 35.3373 20.1462 35.324 20.093 35.3107C20.0528 35.284 20.0128 35.2707 19.9998 35.2453C19.9867 35.2173 19.9732 35.192 19.9732 35.164V34.0306H17.5732C17.5331 34.0306 17.493 34.0186 17.4528 34.0186C17.4263 34.004 17.3862 33.9773 17.3727 33.9373C17.3462 33.8973 17.3331 33.8306 17.32 33.764C17.3066 33.6853 17.2935 33.5786 17.2935 33.4573C17.2935 33.352 17.3066 33.2706 17.3066 33.192C17.3066 33.1106 17.32 33.044 17.3331 32.9906C17.3462 32.924 17.3596 32.8707 17.3727 32.8053C17.3992 32.7507 17.4263 32.6973 17.4528 32.632L19.3992 29.204C19.4134 29.1773 19.4399 29.1507 19.4795 29.1387C19.52 29.1107 19.5732 29.0973 19.6399 29.084C19.7195 29.0706 19.7998 29.0573 19.9066 29.044H20.7195C20.8399 29.0573 20.9195 29.0706 20.9998 29.084C21.0659 29.1106 21.1195 29.124 21.1462 29.1506C21.1732 29.1773 21.1998 29.204 21.1998 29.2453V33.0186H21.7467ZM4.28002 8.79064C4.25282 8.79064 4.22629 8.77732 4.21335 8.76398C4.18669 8.75065 4.15963 8.72397 4.14616 8.6853C4.13309 8.64397 4.11949 8.59066 4.10656 8.53732C4.09296 8.47199 4.09295 8.39065 4.09295 8.29865C4.09295 8.20398 4.09296 8.12399 4.10656 8.07066C4.10656 8.00399 4.11949 7.95066 4.14616 7.912C4.15963 7.87066 4.17322 7.84398 4.19976 7.83065C4.22629 7.81732 4.25282 7.80532 4.28002 7.80532H5.43989V3.73732L4.43989 4.28397C4.35963 4.32397 4.30656 4.35197 4.25282 4.35197C4.21336 4.36397 4.17323 4.35198 4.14616 4.32398C4.11949 4.29865 4.10655 4.24533 4.09295 4.17733C4.08002 4.11066 4.08002 4.01865 4.08002 3.89732V3.71066C4.08002 3.65733 4.09296 3.61733 4.10656 3.57866C4.11949 3.53733 4.13309 3.51064 4.15962 3.48397C4.18669 3.47197 4.21336 3.44397 4.25282 3.4173L5.60029 2.55064C5.61336 2.5373 5.62682 2.52533 5.65335 2.51066C5.67949 2.51066 5.70602 2.49732 5.74669 2.49732C5.78615 2.49732 5.83989 2.48397 5.90656 2.48397H6.14616C6.26696 2.48397 6.37269 2.48398 6.43989 2.49732C6.52003 2.49732 6.57322 2.51066 6.61335 2.51066C6.65335 2.52533 6.67949 2.53732 6.69295 2.56398C6.70602 2.57865 6.70602 2.60398 6.70602 2.63198V7.80532H7.73255C7.75962 7.80532 7.78616 7.81732 7.81283 7.83065C7.83989 7.84398 7.85335 7.87066 7.88002 7.912C7.89295 7.95066 7.90656 8.00399 7.91949 8.07066V8.29865C7.91949 8.39065 7.91949 8.47199 7.90656 8.53732C7.90656 8.59066 7.89296 8.64397 7.86642 8.6853C7.85336 8.72397 7.82629 8.75065 7.81283 8.76398C7.78616 8.77732 7.75962 8.79064 7.73255 8.79064H4.28002ZM7.61335 29.9506C7.69295 30.1506 7.73255 30.364 7.73255 30.5906C7.73255 30.8053 7.70603 31.004 7.67949 31.192C7.63989 31.3906 7.55962 31.604 7.42629 31.8306C7.30655 32.0573 7.13309 32.3106 6.91949 32.5906C6.69296 32.8586 6.39922 33.1773 6.02629 33.5506L5.29349 34.2986H7.75962C7.79975 34.2986 7.82629 34.2986 7.85335 34.324C7.88002 34.3373 7.90656 34.3773 7.91949 34.4173C7.94669 34.4573 7.96016 34.5107 7.97323 34.5787C7.97323 34.644 7.98669 34.7107 7.98669 34.8053C7.98669 34.8973 7.97323 34.9773 7.97323 35.044C7.96016 35.1107 7.94669 35.164 7.93363 35.204C7.91949 35.2453 7.89296 35.284 7.86642 35.2986C7.83989 35.3106 7.81282 35.324 7.78616 35.324H4.18669C4.11949 35.324 4.05282 35.324 3.99976 35.3107C3.94669 35.2987 3.90655 35.2706 3.88002 35.2306C3.83989 35.192 3.82629 35.1387 3.81283 35.0707C3.79976 34.9907 3.78616 34.912 3.78616 34.7906C3.78616 34.6853 3.78616 34.5906 3.79976 34.5253C3.81282 34.444 3.82629 34.3773 3.85335 34.3107C3.88002 34.2573 3.90655 34.204 3.94669 34.1387C3.99975 34.084 4.03936 34.0186 4.10656 33.9506L5.19976 32.7906C5.41336 32.564 5.58616 32.364 5.71949 32.1773C5.85336 31.9907 5.94669 31.8173 6.02629 31.6707C6.09295 31.5253 6.14616 31.3773 6.17323 31.2453C6.19976 31.124 6.21335 30.9906 6.21335 30.884C6.21335 30.7773 6.19976 30.6707 6.17323 30.5787C6.13309 30.484 6.08003 30.404 6.01283 30.324C5.94669 30.2573 5.86643 30.204 5.77323 30.164C5.66643 30.124 5.54669 30.0973 5.41335 30.0973C5.22629 30.0973 5.05283 30.124 4.90656 30.1773C4.75963 30.2173 4.63989 30.2707 4.52002 30.3373C4.41335 30.3907 4.32003 30.444 4.23989 30.4973C4.17323 30.5506 4.10655 30.5787 4.06589 30.5787C4.03935 30.5787 4.01282 30.564 3.99976 30.5506C3.97322 30.5253 3.96015 30.4973 3.94669 30.444C3.93362 30.404 3.91949 30.352 3.91949 30.2707C3.90656 30.192 3.90656 30.0973 3.90656 29.9906V29.8053C3.91949 29.7507 3.91949 29.7107 3.93363 29.6707C3.94669 29.632 3.96016 29.604 3.97323 29.5787C3.98669 29.5507 4.01282 29.5106 4.05282 29.484C4.09296 29.444 4.17322 29.3906 4.28002 29.324C4.38615 29.2706 4.52003 29.2173 4.67949 29.1506C4.83989 29.0973 5.01282 29.0573 5.19976 29.0186C5.38616 28.9773 5.58616 28.9506 5.78616 28.9506C6.11949 28.9506 6.39923 28.9906 6.63989 29.084C6.89296 29.164 7.09296 29.2706 7.25282 29.4173C7.41336 29.564 7.53309 29.7373 7.61335 29.9506ZM33.3331 0.337322C30.3066 0.337322 27.8664 2.77732 27.8664 5.80532C27.8664 8.25732 29.493 10.3373 31.7195 11.0186V17.472H21.2528V11.0186C23.4795 10.324 25.093 8.25732 25.093 5.80532C25.093 2.77732 22.6534 0.337322 19.6399 0.337322C16.6134 0.337322 14.1732 2.77732 14.1732 5.80532C14.1732 8.25732 15.7862 10.3373 18.0128 11.0186V17.472H7.55962V11.0186C9.77322 10.3373 11.3992 8.25732 11.3992 5.80532C11.3992 2.77732 8.94669 0.337322 5.93363 0.337322C2.91949 0.337322 0.479492 2.77732 0.479492 5.80532C0.479492 8.25732 2.09295 10.3373 4.32002 11.0186V27.164C2.09295 27.844 0.479492 29.9373 0.479492 32.3773C0.479492 35.404 2.91949 37.844 5.93363 37.844C8.94669 37.844 11.3992 35.404 11.3992 32.3773C11.3992 29.9373 9.77322 27.844 7.55962 27.164V20.7107H18.0128V27.164C15.7862 27.844 14.1732 29.9373 14.1732 32.3773C14.1732 35.404 16.6134 37.844 19.6399 37.844C22.6534 37.844 25.093 35.404 25.093 32.3773C25.093 29.9373 23.4795 27.8586 21.2528 27.164V20.7107H34.9602V11.0186C37.1732 10.3373 38.7998 8.25732 38.7998 5.80532C38.7998 2.77732 36.3462 0.337322 33.3331 0.337322Z" fill="white"/>
<path d="M34.5736 30.8839C34.5204 31.0186 34.4402 31.1239 34.3465 31.2172C34.2402 31.3106 34.1069 31.3772 33.947 31.4306C33.7865 31.4839 33.6006 31.5106 33.3865 31.5106H32.6271V29.4306H33.3069C33.4668 29.4306 33.6006 29.4439 33.6933 29.4439C33.8001 29.4572 33.8803 29.4719 33.9605 29.4972C34.2001 29.5639 34.3865 29.6852 34.4933 29.8439C34.6006 30.0186 34.6537 30.2172 34.6537 30.4572C34.6537 30.6172 34.6272 30.7639 34.5736 30.8839ZM36.547 35.2706C36.5334 35.2039 36.4933 35.0972 36.4402 34.9506L35.8132 33.5106C35.747 33.3372 35.6668 33.1772 35.6006 33.0439C35.5204 32.9119 35.4402 32.7906 35.3599 32.6852C35.2673 32.5639 35.187 32.4839 35.0803 32.4039C34.987 32.3239 34.8804 32.2706 34.7736 32.2172C35.0001 32.1386 35.2001 32.0439 35.3865 31.9239C35.5599 31.8172 35.7063 31.6706 35.8266 31.5106C35.947 31.3519 36.0397 31.1772 36.1069 30.9772C36.16 30.7772 36.2001 30.5506 36.2001 30.3106C36.2001 30.0186 36.1599 29.7506 36.0662 29.5372C35.9735 29.3106 35.8537 29.1106 35.6933 28.9506C35.5203 28.7906 35.3203 28.6572 35.0933 28.5506C34.8537 28.4439 34.5865 28.3772 34.2938 28.3372C34.2001 28.3239 34.0803 28.3106 33.9605 28.3106C33.8266 28.2986 33.6798 28.2986 33.4798 28.2986H31.5865C31.4667 28.2986 31.36 28.3372 31.2673 28.4039C31.187 28.4839 31.1465 28.6039 31.1465 28.7639V35.4172C31.1465 35.4572 31.16 35.4839 31.1736 35.5106C31.2001 35.5506 31.2402 35.5639 31.2938 35.5906C31.3599 35.6039 31.4266 35.6172 31.5334 35.6319C31.6271 35.6439 31.747 35.6572 31.8803 35.6572C32.0266 35.6572 32.1599 35.6439 32.2531 35.6319C32.3465 35.6172 32.4137 35.6039 32.4798 35.5906C32.5334 35.5639 32.5736 35.5506 32.6006 35.5106C32.6272 35.4839 32.6271 35.4572 32.6271 35.4172V32.6319H33.0933C33.2531 32.6319 33.3995 32.6439 33.5203 32.6972C33.6402 32.7506 33.747 32.8172 33.8402 32.9119C33.934 33.0186 34.0131 33.1386 34.0803 33.2706C34.1599 33.4172 34.2402 33.5786 34.3203 33.7639L34.9736 35.4039C34.987 35.4439 35.0131 35.4839 35.0266 35.5252C35.0531 35.5506 35.0933 35.5786 35.1465 35.6039C35.2001 35.6172 35.2803 35.6319 35.373 35.6439C35.4667 35.6439 35.5865 35.6572 35.747 35.6572C35.9339 35.6572 36.0933 35.6439 36.2001 35.6439C36.3069 35.6319 36.3865 35.6172 36.4402 35.6039C36.5069 35.5786 36.5334 35.5506 36.5599 35.5252C36.5735 35.4972 36.5736 35.4719 36.5736 35.4306C36.5736 35.3906 36.5599 35.3372 36.547 35.2706Z" fill="white"/>
</svg>
