<svg width="26" height="26" viewBox="0 0 26 26" fill="none" xmlns="http://www.w3.org/2000/svg">
<path d="M23.5949 5.07305L20.5045 1.98555C20.1272 1.60831 19.6223 1.39648 19.0884 1.39648C18.5545 1.39648 18.0495 1.60541 17.6723 1.98555L14.344 5.30809C13.9667 5.68532 13.7549 6.19314 13.7549 6.72707C13.7549 7.2639 13.9638 7.7659 14.344 8.14604L16.944 10.7489C16.3517 12.129 15.5006 13.3829 14.4368 14.4429C13.3719 15.5137 12.127 16.3581 10.7458 16.9559L8.14575 14.353C7.76852 13.9757 7.26361 13.7639 6.72968 13.7639C6.46632 13.7629 6.20542 13.8145 5.96226 13.9157C5.7191 14.0168 5.49858 14.1655 5.31361 14.353L1.98236 17.6755C1.60513 18.0527 1.3933 18.5605 1.3933 19.0945C1.3933 19.6313 1.60222 20.1333 1.98236 20.5135L5.06986 23.601C5.71405 24.2451 6.602 24.6137 7.51316 24.6137C7.70178 24.6137 7.88459 24.5992 8.07031 24.5672C11.9123 23.9347 15.7252 21.8889 18.804 18.813C21.8799 15.7313 23.9228 11.9184 24.5612 8.07349C24.744 6.98242 24.3783 5.85943 23.5949 5.07305V5.07305ZM22.5038 7.72818C21.9379 11.1494 20.0982 14.5619 17.327 17.3331C14.5558 20.1043 11.1462 21.944 7.72499 22.5099C7.29553 22.5824 6.85446 22.4373 6.54106 22.1268L3.5087 19.0945L6.72388 15.8764L10.2002 19.3585L10.2263 19.3847L10.8531 19.1525C12.7536 18.4538 14.4794 17.3502 15.9109 15.9181C17.3424 14.4861 18.4455 12.7599 19.1435 10.8592L19.3757 10.2324L15.8703 6.72997L19.0855 3.51189L22.1179 6.54425C22.4312 6.85765 22.5763 7.29872 22.5038 7.72818Z" fill="white" fill-opacity="0.85"/>
</svg>