<svg width="20" height="39" viewBox="0 0 20 39" fill="none" xmlns="http://www.w3.org/2000/svg">
<path d="M16.1763 2.74961H11.4259V5.60614H16.1763V2.74961Z" fill="#F2F7FC"/>
<path d="M17.242 2.86734C17.242 2.86734 12.9986 3.60534 11.843 6.03418H1.18726C1.18726 6.03418 2.01733 4.33423 3.08115 2.86734C3.08115 2.86734 11.0224 2.34319 17.242 2.86734Z" fill="#EBF1F7"/>
<path d="M19.449 1.89597L18.3457 2.20392V0.663498L19.449 0.97145V1.89597Z" fill="#0F1010"/>
<path d="M18.3458 2.50342H17.2422V0.363974H18.3458V2.50342Z" fill="#0F1010"/>
<path d="M9.67152 12.1486H5.34912V11.2514H9.67152V12.1486Z" fill="#0F1010"/>
<path d="M11.4258 5.60615H4.02258V11.3833H11.4258V5.60615Z" fill="#232323"/>
<path d="M3.0813 2.86731H17.2422V-1.4782e-05C17.2422 -1.4782e-05 8.25942 -1.4782e-05 6.67583 -1.4782e-05C5.09258 -1.4782e-05 3.0813 2.86731 3.0813 2.86731Z" fill="#FAFAFA"/>
<path d="M15.6627 5.41357C15.6627 5.41357 14.5395 9.4577 16.1764 11.5439V12.1486C16.1764 12.1486 12.7421 10.1637 13.0308 5.41357H15.6627Z" fill="#353535"/>
<path d="M3.3114 2.86731H17.0753V2.20386H3.8106C3.50197 2.58803 3.3114 2.86731 3.3114 2.86731Z" fill="white"/>
<path d="M3.64068 2.69872H16.9064V2.37256H3.89128C3.79313 2.49601 3.70881 2.60697 3.64068 2.69872ZM17.2437 3.03601H2.99207L3.17184 2.77225C3.17993 2.76078 3.36949 2.48319 3.67879 2.09834L3.72938 2.03527H17.2437V3.03601Z" fill="#0F1010"/>
<path d="M0.536133 37.0303C0.536133 37.6162 1.01104 38.0911 1.59692 38.0911H15.3396C15.8829 38.0911 16.3238 37.6503 16.3238 37.1069V27.5919C16.3238 27.5919 16.3966 21.0987 10.2373 19.937V13.9848C10.2373 13.4411 9.79683 13.0006 9.25312 13.0006H5.3213C4.92161 13.0006 4.56138 13.2424 4.41027 13.6128L0.536133 23.1035V37.0303Z" fill="white"/>
<path d="M16.3236 27.5919V37.1069C16.3236 37.6503 15.8828 38.0911 15.3394 38.0911H1.52018C0.976802 38.0911 0.535962 37.6503 0.535962 37.1069V23.1035L4.4101 13.6128C4.56121 13.2425 4.92144 13.0006 5.32113 13.0006H9.25295C9.79667 13.0006 10.2372 13.4411 10.2372 13.9848V19.9371C16.3965 21.0987 16.3236 27.5919 16.3236 27.5919ZM10.7711 19.5562V13.2C10.7711 12.6195 10.3006 12.1486 9.7201 12.1486H5.10998C4.68297 12.1486 4.29812 12.4073 4.1369 12.8026L0 22.9379V37.8918C0 38.4723 0.470528 38.9428 1.05101 38.9428H15.8082C16.3887 38.9428 16.8592 38.4723 16.8592 37.8918V27.7309C16.8592 27.7309 17.3483 20.7968 10.7711 19.5562Z" fill="#F1F1F1"/>
<path d="M10.2373 19.937V17.0636H3.00174L0.536133 23.1035V37.1069C0.536133 37.6503 0.976972 38.0911 1.52035 38.0911H15.3396C15.8829 38.0911 16.3238 37.6503 16.3238 37.1069V27.5919C16.3238 27.5919 16.3966 21.0987 10.2373 19.937Z" fill="#DADADA"/>
<path d="M5.77723 10.5704H4.36499V6.03419H5.77723V10.5704Z" fill="white"/>
<path d="M7.72437 10.6548H6.31213V6.11854H7.72437V10.6548Z" fill="white"/>
<path d="M12.8051 38.216V27.9484C12.8233 22.943 6.55911 20.98 1.15636 21.1429C0.915534 21.7331 0.296265 23.2499 0.296265 23.2499V37.5272C0.296265 38.0814 0.745539 38.5306 1.30005 38.5306H12.742C12.7825 38.4335 12.8051 38.3276 12.8051 38.216Z" fill="white"/>
<path d="M0.464978 23.2827V37.5272C0.464978 37.9876 0.83971 38.362 1.29978 38.362H12.6197C12.6308 38.3141 12.6365 38.2652 12.6365 38.2159V27.9484C12.6416 26.5277 12.1248 25.2868 11.1005 24.2588C9.25584 22.4074 5.76992 21.3021 1.77536 21.3021C1.60638 21.3021 1.43841 21.3041 1.27111 21.3085L0.464978 23.2827ZM12.8547 38.6993H1.29978C0.653525 38.6993 0.127686 38.1734 0.127686 37.5272V23.2169L1.04209 20.9773L1.15137 20.9742C1.35881 20.9678 1.5659 20.9648 1.77536 20.9648C5.85761 20.9648 9.43292 22.1072 11.3393 24.0206C12.4291 25.1145 12.9792 26.4363 12.9738 27.9491V38.2159C12.9738 38.3458 12.9485 38.4736 12.8979 38.5954L12.8547 38.6993Z" fill="#0F1010"/>
<path d="M9.67152 10.5704H8.25928V6.03419H9.67152V10.5704Z" fill="white"/>
<path d="M13.5124 5.6062H15.0208C15.0208 5.6062 14.4109 8.20605 15.0208 10.2278C15.0208 10.2278 13.2878 8.30218 13.5124 5.6062Z" fill="white"/>
<path d="M10.9978 27.6226C10.5981 23.2048 5.07798 22.6496 2.70175 22.6165C2.41775 22.6125 2.1442 22.7224 1.94217 22.9218C1.74013 23.1214 1.62646 23.3933 1.62646 23.6773V35.8944C1.62646 36.3325 1.98129 36.6877 2.41943 36.6877H9.93701C10.5229 36.6877 10.9978 36.2128 10.9978 35.6269V27.6226Z" fill="#0F1010"/>
<path d="M6.74597 35.9686H2.24683V28.5226H6.74597V35.9686Z" fill="white"/>
<path d="M10.3305 27.8591V27.5646C9.747 24.0372 5.18242 23.5825 3.18329 23.5549C2.9374 23.5515 2.70028 23.6466 2.52523 23.8197C2.34984 23.9923 2.25134 24.2281 2.25134 24.4743V27.8591H10.3305Z" fill="white"/>
<path d="M10.3303 29.325H7.34998V28.5225H10.3303V29.325Z" fill="white"/>
<path d="M10.3303 30.6501H7.34998V29.8477H10.3303V30.6501Z" fill="white"/>
<path d="M10.3303 31.9753H7.34998V31.1729H10.3303V31.9753Z" fill="white"/>
<path d="M10.3303 33.3006H7.34998V32.4982H10.3303V33.3006Z" fill="white"/>
<path d="M10.3303 34.6258H7.34998V33.8234H10.3303V34.6258Z" fill="white"/>
<path d="M10.3303 35.951H7.34998V35.1486H10.3303V35.951Z" fill="white"/>
</svg>
