<svg width="18" height="17" viewBox="0 0 18 17" fill="none" xmlns="http://www.w3.org/2000/svg">
<path fill-rule="evenodd" clip-rule="evenodd" d="M8.75509 14.9557C7.31255 14.9557 5.97232 14.5412 4.84992 13.8254L2.12302 14.6678L3.00813 12.1307C2.15817 11.004 1.65598 9.61983 1.65598 8.12547C1.65598 7.90329 1.66853 7.68112 1.69176 7.46198C2.04016 4.00516 5.07528 1.29582 8.75509 1.29582C12.4826 1.29582 15.546 4.07394 15.8304 7.59224C15.8467 7.76877 15.8548 7.94529 15.8548 8.12547C15.8548 11.8933 12.6684 14.9557 8.75509 14.9557ZM17.1938 7.9179C17.0796 3.52611 13.3483 -0.000104904 8.75509 -0.000104904C4.21716 -0.000104904 0.517885 3.44576 0.320147 7.76877C0.316381 7.88807 0.312614 8.00677 0.312614 8.12547C0.312614 9.66244 0.755171 11.0959 1.52227 12.3225L0 16.6802L4.67604 15.2394C5.88569 15.8828 7.27739 16.251 8.75509 16.251C13.4198 16.251 17.1982 12.6134 17.1982 8.12547C17.1982 8.05668 17.1982 7.9879 17.1938 7.9179Z" fill="white"/>
<path fill-rule="evenodd" clip-rule="evenodd" d="M12.6252 9.76596C12.4155 9.66674 11.3998 9.18343 11.2102 9.11891C11.02 9.04952 10.8819 9.01847 10.7438 9.21813C10.6051 9.41778 10.2058 9.86579 10.0872 9.99605C9.9648 10.1306 9.84615 10.1458 9.63649 10.046C9.43122 9.94614 8.7633 9.73918 7.97298 9.05682C7.35967 8.53212 6.94097 7.8802 6.82233 7.68115C6.70368 7.4815 6.8104 7.37437 6.91335 7.27454C7.00814 7.18324 7.11925 7.0408 7.22534 6.92636C7.25296 6.89167 7.27681 6.86123 7.30129 6.83019C7.34837 6.75775 7.38353 6.68836 7.43124 6.59218C7.50217 6.45827 7.46639 6.34323 7.41554 6.24401C7.36407 6.14418 6.94913 5.16295 6.77525 4.76425C6.60513 4.36555 6.43125 4.43433 6.30821 4.43433C6.19019 4.43433 6.05146 4.41546 5.91399 4.41546C5.77526 4.41546 5.5499 4.46538 5.36032 4.66442C5.17011 4.86408 4.63654 5.34678 4.63654 6.32862C4.63654 6.55749 4.68048 6.78758 4.74325 7.00671C4.95292 7.70794 5.40363 8.2862 5.48273 8.38603C5.58505 8.51629 6.91335 10.5938 9.01628 11.3955C11.123 12.188 11.123 11.9238 11.5028 11.8891C11.8813 11.8587 12.7281 11.4101 12.8982 10.9432C13.0721 10.4794 13.0721 10.0807 13.0206 9.99605C12.9692 9.9157 12.8304 9.86579 12.6252 9.76596Z" fill="white"/>
</svg>
