<?xml version="1.0" encoding="utf-8"?>
<!-- Generator: Adobe Illustrator 27.9.0, SVG Export Plug-In . SVG Version: 6.00 Build 0)  -->
<svg version="1.1" id="Calque_1" xmlns="http://www.w3.org/2000/svg" xmlns:xlink="http://www.w3.org/1999/xlink" x="0px" y="0px"
	 viewBox="0 0 337.3 140.4" style="enable-background:new 0 0 337.3 140.4;" xml:space="preserve">
<style type="text/css">
	.st0{fill:#FFFFFF;}
	.st1{fill:#C90C0F;}
</style>
<g>
	<path class="st0" d="M316,13c-0.1-6.3-4.9-13-13.2-13H168.5c0,0-8.3,13.7-10.4,17.3C155.9,13.7,147.6,0,147.6,0h-2.4H13.7
		C3.7,0,0,8,0,13.1V102v24.7c0,8.9,6.9,13.7,13.5,13.7h120.6c0,0,21.5-35.5,23.9-39.6c2.5,4.2,24,39.6,24,39.6h120.6
		c6.6,0,13.5-4.8,13.5-13.7L316,13z"/>
	<path class="st1" d="M311.6,13.2L311.6,13.2c-0.1-4.3-3.2-8.8-8.8-8.8H171c0,0-8.5,14.1-12.9,21.4c-4.4-7.3-13-21.4-13-21.4H13.7
		c-6.8,0-9.3,5.3-9.3,8.7c0,0,0,71.5,0,88.9l0,0v24.7c0,6,4.7,9.3,9.1,9.3h118.2c0,0,20.4-33.8,26.4-43.7c6,9.9,26.5,43.7,26.5,43.7
		h118.1c4.4,0,9.1-3.3,9.1-9.3L311.6,13.2z M237.5,52.2V14.4c0-5.3,4.9-5.3,4.9-5.3s56.4,0,60.4,0s4.1,4.1,4.1,4.1v20.9
		c0,0-39.6,0-41.3,0c-1.7,0-3.1,0.9-3.1,2.7c0,2,2.3,2.8,2.3,2.8l39,13.4c3.4,1.4,3.1,3.6,3.1,3.6v44.5h-69.4V76.8
		c0,0,39.9,0,40.8,0c0.9,0,3-0.6,3-3s-3.4-3.3-3.4-3.3S247.4,60.4,242,58.1C236.5,56,237.5,52.2,237.5,52.2z M206.3,9.2h25v92h-25
		V9.2z M68.6,9.2h41.2v25.3H90.5V43h17.8v24.1H90.5v9.1h20.3v25.1H68.6V9.2z M13.7,9.2H31V43h10.3V9.2h21.9v92H41.3V67.1H31.1v34.1
		H9.2V13.1C9.1,13.1,9.1,9.2,13.7,9.2z M307,126.8c0,4.6-4.4,4.6-4.4,4.6H207h-19.8l-29.1-48.1L129,131.4H13.5c0,0-4.4,0-4.4-4.6
		v-20.1h105.6l28.8-47.6l-30.2-50h29.2L158,34.9l15.5-25.8h29.2L172.6,59l28.8,47.6h105.5L307,126.8L307,126.8z"/>
	<path class="st1" d="M321.5,13.9v-1.6h1.1c0.8,0,1.2,0.3,1.2,0.8c0,0.4-0.3,0.8-1.1,0.8H321.5z M325.5,17.3l-0.7-1.2
		c-0.6-1.1-0.8-1.2-1.3-1.4l0,0c1-0.1,1.6-0.8,1.6-1.7s-0.6-1.7-1.9-1.7h-2.9v6h1.2v-2.5h0.2c0.5,0,0.7,0.1,0.9,0.3
		c0.2,0.3,0.6,0.8,0.9,1.2l0.5,1L325.5,17.3L325.5,17.3z M322.8,9.8c2.5,0,4.5,2,4.5,4.6c0,2.5-2,4.5-4.5,4.5s-4.5-2-4.5-4.5
		C318.3,11.8,320.3,9.8,322.8,9.8z M322.8,8.7c-3.1,0-5.6,2.5-5.6,5.7c0,3.1,2.5,5.6,5.6,5.6c3.1,0,5.6-2.6,5.6-5.6
		C328.4,11.2,325.9,8.7,322.8,8.7z"/>
</g>
</svg>
