<svg width="20" height="39" viewBox="0 0 20 39" fill="none" xmlns="http://www.w3.org/2000/svg">
<path d="M16.1763 2.74961H11.4259V5.60614H16.1763V2.74961Z" fill="#F2F7FC"/>
<path d="M17.242 2.86734C17.242 2.86734 12.9986 3.60534 11.843 6.03418H1.18726C1.18726 6.03418 2.01733 4.33423 3.08115 2.86734C3.08115 2.86734 11.0224 2.34319 17.242 2.86734Z" fill="#EBF1F7"/>
<path d="M19.449 1.89597L18.3457 2.20392V0.663498L19.449 0.97145V1.89597Z" fill="#0F1010"/>
<path d="M18.3458 2.50342H17.2422V0.363974H18.3458V2.50342Z" fill="#0F1010"/>
<path d="M9.67155 12.1486H5.34915V11.2514H9.67155V12.1486Z" fill="#0F1010"/>
<path d="M11.4258 5.60615H4.02258V11.3833H11.4258V5.60615" fill="#232323"/>
<path d="M3.0813 2.86731H17.2422V-1.47436e-05C17.2422 -1.47436e-05 8.25942 -1.47436e-05 6.67583 -1.47436e-05C5.09258 -1.47436e-05 3.0813 2.86731 3.0813 2.86731Z" fill="#FAFAFA"/>
<path d="M15.6627 5.41357C15.6627 5.41357 14.5395 9.4577 16.1764 11.5439V12.1486C16.1764 12.1486 12.7421 10.1637 13.0308 5.41357H15.6627Z" fill="#353535"/>
<path d="M3.31134 2.86731H17.0752V2.20386H3.81053C3.50191 2.58803 3.31134 2.86731 3.31134 2.86731Z" fill="white"/>
<path d="M3.64074 2.69872H16.9064V2.37256H3.89135C3.79319 2.49601 3.70887 2.60697 3.64074 2.69872V2.69872ZM17.2437 3.03601H2.99213L3.1719 2.77225C3.17999 2.76078 3.36955 2.48319 3.67885 2.09834L3.72944 2.03527H17.2437V3.03601" fill="#0F1010"/>
<path d="M0.536072 37.0303C0.536072 37.6162 1.01098 38.0911 1.59686 38.0911H15.3395C15.8829 38.0911 16.3237 37.6503 16.3237 37.1069V27.5919C16.3237 27.5919 16.3966 21.0987 10.2373 19.937V13.9848C10.2373 13.4411 9.79677 13.0006 9.25306 13.0006H5.32124C4.92154 13.0006 4.56132 13.2424 4.41021 13.6128L0.536072 23.1035V37.0303Z" fill="white"/>
<path d="M16.3236 27.5919V37.1069C16.3236 37.6503 15.8828 38.0911 15.3394 38.0911H1.52018C0.976802 38.0911 0.535962 37.6503 0.535962 37.1069V23.1036L4.4101 13.6128C4.56121 13.2425 4.92144 13.0006 5.32113 13.0006H9.25295C9.79666 13.0006 10.2372 13.4411 10.2372 13.9848V19.9371C16.3965 21.0987 16.3236 27.5919 16.3236 27.5919V27.5919ZM10.7711 19.5562V13.2C10.7711 12.6195 10.3006 12.1486 9.7201 12.1486H5.10998C4.68297 12.1486 4.29812 12.4073 4.1369 12.8026L0 22.9379V37.8918C0 38.4723 0.470528 38.9428 1.05101 38.9428H15.8082C16.3887 38.9428 16.8592 38.4723 16.8592 37.8918V27.7309C16.8592 27.7309 17.3483 20.7968 10.7711 19.5562" fill="#F1F1F1"/>
<path d="M10.2373 19.937V17.0636H3.00168L0.536072 23.1035V37.1069C0.536072 37.6503 0.976911 38.0911 1.52029 38.0911H15.3395C15.8829 38.0911 16.3237 37.6503 16.3237 37.1069V27.5919C16.3237 27.5919 16.3966 21.0987 10.2373 19.937" fill="#DADADA"/>
<path d="M5.7772 10.5704H4.36496V6.03419H5.7772V10.5704Z" fill="white"/>
<path d="M7.72437 10.6548H6.31213V6.11854H7.72437V10.6548Z" fill="white"/>
<path d="M12.805 38.216V27.9484C12.8233 22.943 6.55905 20.98 1.1563 21.1429C0.915473 21.7331 0.296204 23.2499 0.296204 23.2499V37.5272C0.296204 38.0814 0.745478 38.5306 1.29999 38.5306H12.742C12.7824 38.4335 12.805 38.3276 12.805 38.216Z" fill="white"/>
<path d="M0.465039 23.2827V37.5272C0.465039 37.9876 0.839771 38.362 1.29984 38.362H12.6197C12.6308 38.3141 12.6366 38.2652 12.6366 38.2159V27.9484C12.6416 26.5277 12.1249 25.2868 11.1006 24.2588C9.2559 22.4074 5.76998 21.3021 1.77542 21.3021C1.60644 21.3021 1.43847 21.3041 1.27117 21.3085L0.465039 23.2827ZM12.8548 38.6993H1.29984C0.653586 38.6993 0.127747 38.1734 0.127747 37.5272V23.2169L1.04215 20.9773L1.15143 20.9742C1.35887 20.9678 1.56597 20.9648 1.77542 20.9648C5.85768 20.9648 9.43298 22.1072 11.3394 24.0206C12.4291 25.1145 12.9793 26.4363 12.9739 27.9491V38.2159C12.9739 38.3458 12.9486 38.4736 12.898 38.5954L12.8548 38.6993" fill="#0F1010"/>
<path d="M9.67155 10.5704H8.25931V6.03419H9.67155V10.5704Z" fill="white"/>
<path d="M13.5124 5.6062H15.0208C15.0208 5.6062 14.411 8.20605 15.0208 10.2278C15.0208 10.2278 13.2878 8.30218 13.5124 5.6062Z" fill="white"/>
<path d="M10.9979 27.6226C10.5982 23.2048 5.07804 22.6496 2.70181 22.6165C2.41781 22.6125 2.14427 22.7224 1.94223 22.9218C1.74019 23.1214 1.62653 23.3933 1.62653 23.6773V35.8944C1.62653 36.3325 1.98135 36.6877 2.41949 36.6877H9.93707C10.5229 36.6877 10.9979 36.2128 10.9979 35.6269V27.6226" fill="#0F1010"/>
<path d="M6.74597 35.9686H2.24683V28.5226H6.74597V35.9686Z" fill="white"/>
<path d="M10.3305 27.8591V27.5646C9.74694 24.0372 5.18236 23.5825 3.18323 23.5549C2.93734 23.5515 2.70022 23.6466 2.52517 23.8197C2.34978 23.9923 2.25128 24.2281 2.25128 24.4743V27.8591H10.3305" fill="white"/>
<path d="M10.3302 29.325H7.34991V28.5225H10.3302V29.325Z" fill="white"/>
<path d="M10.3302 30.6501H7.34991V29.8477H10.3302V30.6501Z" fill="white"/>
<path d="M10.3302 31.9753H7.34991V31.1729H10.3302V31.9753Z" fill="white"/>
<path d="M10.3302 33.3006H7.34991V32.4982H10.3302V33.3006Z" fill="white"/>
<path d="M10.3302 34.6258H7.34991V33.8234H10.3302V34.6258Z" fill="white"/>
<path d="M10.3302 35.951H7.34991V35.1486H10.3302V35.951Z" fill="white"/>
</svg>
