<svg width="38" height="40" viewBox="0 0 38 40" fill="none" xmlns="http://www.w3.org/2000/svg">
<path d="M36.3083 7.12311H36.4616V7.0698L36.3083 7.12311ZM36.2217 6.47675C36.3083 6.47675 36.3883 6.49009 36.4616 6.50342V6.47675H36.2217ZM22.8684 7.06313V7.12311H23.0417L22.8684 7.06313Z" fill="white"/>
<path d="M36.4815 11.1945L31.9771 12.7803V9.60192L36.4815 8.01605V11.1945ZM36.4815 15.3191L31.9771 16.9049V13.7332L36.4815 12.1473V15.3191ZM36.4815 19.4503L31.9771 21.0362V17.8644L36.4815 16.2719V19.4503ZM36.4815 23.5749L31.9771 25.1608V21.989L36.4815 20.4032V23.5749ZM36.4815 27.7062L31.9771 29.292V26.1203L36.4815 24.5344V27.7062ZM36.4815 31.8308L31.9771 33.4233V30.2449L36.4815 28.659V31.8308ZM36.4815 35.962L31.9771 37.5479V34.3762L36.4815 32.7903V35.962ZM36.4815 39.1804H31.9771V38.5074L36.4815 36.9149V39.1804ZM31.0909 39.1804H30.0447V7.12317H31.0909V39.1804ZM28.2656 39.1804V7.12317H29.3051V39.1804H28.2656ZM22.8683 39.1804V36.9149L27.3727 38.5074V39.1804H22.8683ZM22.8683 32.7903L27.3727 34.3762V37.5479L22.8683 35.962V32.7903ZM22.8683 28.659L27.3727 30.2449V33.4233L22.8683 31.8308V28.659ZM22.8683 24.5344L27.3727 26.1203V29.292L22.8683 27.7062V24.5344ZM22.8683 20.4032L27.3727 21.989V25.1608L22.8683 23.5749V20.4032ZM22.8683 16.2719L27.3727 17.8644V21.0362L22.8683 19.4503V16.2719ZM22.8683 12.1473L27.3727 13.7332V16.9049L22.8683 15.3191V12.1473ZM22.8683 8.01605L27.3727 9.60192V12.7803L22.8683 11.1945V8.01605ZM22.8683 7.06319L23.0416 7.12317H27.3727V8.64906L23.0416 7.12317H22.8683V7.06319ZM31.9771 7.12317H36.3082L36.4615 7.06986V7.12317H36.3082L31.9771 8.64906V7.12317ZM36.8813 6.51013C36.7947 6.49014 36.7081 6.47681 36.6214 6.47681H36.4615V6.50348C36.3882 6.49015 36.3082 6.47681 36.2216 6.47681H22.7817C22.1287 6.47681 21.5956 7.00989 21.5956 7.66956V38.7673C21.5956 39.427 22.1287 39.9534 22.7817 39.9534H36.6214C36.7081 39.9534 36.7947 39.9467 36.8813 39.9267C37.4077 39.8068 37.8075 39.3403 37.8075 38.7673V7.66956C37.8075 7.09651 37.4077 6.62341 36.8813 6.51013Z" fill="white"/>
<path d="M31.0911 39.9533V39.96H30.045V39.9533H31.0911Z" fill="white"/>
<path d="M29.3051 39.9533V39.96H28.2656V39.9533H29.3051Z" fill="white"/>
<path d="M20.8825 33.1933H19.7831V13.2393H20.8825V33.1933Z" fill="white"/>
<path d="M19.1171 20.5831V25.8538H0V20.5831H8.34913C8.45575 20.9629 8.64233 21.316 8.88887 21.6092C9.34198 22.149 9.97499 22.4555 10.6347 22.4555C11.7008 22.4555 12.6003 21.6692 12.9202 20.5831H19.1171Z" fill="white"/>
<path d="M12.3602 1.73907H8.90862C9.04854 0.752902 9.76818 -2.74181e-05 10.6344 -2.74181e-05C11.1142 -2.74181e-05 11.5539 0.233163 11.8671 0.606309C12.127 0.906159 12.3003 1.2993 12.3602 1.73907Z" fill="white"/>
<path d="M12.3802 19.3437V19.7168C12.3802 20.8629 11.6006 21.7891 10.6344 21.7891C10.1546 21.7891 9.71486 21.5559 9.40168 21.1828C9.08851 20.8096 8.88861 20.2899 8.88861 19.7168V19.3437H12.3802Z" fill="white"/>
<path d="M13.5396 5.977H11.8738L13.6662 6.62336C13.7129 6.64335 13.7595 6.66334 13.8062 6.68999C13.8128 6.69665 13.8128 6.69664 13.8195 6.69664C14.0794 6.80326 14.2659 7.06313 14.2659 7.36965C14.2659 7.76945 13.9394 8.09594 13.5396 8.09594H11.8738L13.6662 8.74228C13.7129 8.76227 13.7595 8.78226 13.8062 8.80892C13.8128 8.81558 13.8128 8.81559 13.8195 8.81559C14.0794 8.9222 14.2659 9.18207 14.2659 9.48192C14.2659 9.88838 13.9394 10.2149 13.5396 10.2149H11.8938L13.6662 10.8546C13.7196 10.8746 13.7729 10.9012 13.8195 10.9345C14.0794 11.0411 14.2659 11.301 14.2659 11.6009C14.2659 12.0007 13.9394 12.3272 13.5396 12.3272H11.8738L13.6662 12.9735C13.7129 12.9935 13.7595 13.0135 13.7995 13.0401C14.0727 13.1401 14.2659 13.4066 14.2659 13.7198C14.2659 14.1196 13.9394 14.4461 13.5396 14.4461H11.8738L13.6662 15.0924C13.7129 15.1124 13.7595 15.1324 13.8062 15.1591C13.8128 15.1657 13.8128 15.1657 13.8195 15.1657C14.0794 15.2724 14.2659 15.5322 14.2659 15.8321C14.2659 16.2319 13.9394 16.5584 13.5396 16.5584H11.8738L13.6662 17.2047C13.7129 17.2247 13.7595 17.2447 13.8062 17.2713C13.8128 17.278 13.8128 17.278 13.8195 17.278C14.0794 17.3846 14.2659 17.6445 14.2659 17.951C14.2659 18.3508 13.9394 18.6773 13.5396 18.6773H7.48934C7.08288 18.6773 6.75638 18.3508 6.75638 17.951C6.75638 17.5445 7.08288 17.218 7.48934 17.218H9.40172L7.5693 16.5584H7.48934C7.08288 16.5584 6.75638 16.2319 6.75638 15.8321C6.75638 15.4323 7.08288 15.1058 7.48934 15.1058H9.41504L7.58929 14.4461H7.48934C7.08288 14.4461 6.75638 14.1196 6.75638 13.7198C6.75638 13.3133 7.08288 12.9868 7.48934 12.9868H9.40172L7.5693 12.3272H7.48934C7.08288 12.3272 6.75638 12.0007 6.75638 11.6009C6.75638 11.2011 7.08288 10.8745 7.48934 10.8745H9.41504L7.58929 10.2149H7.48934C7.08288 10.2149 6.75638 9.88838 6.75638 9.48192C6.75638 9.08212 7.08288 8.75562 7.48934 8.75562H9.41504L7.58929 8.09594H7.48934C7.08288 8.09594 6.75638 7.76945 6.75638 7.36965C6.75638 6.96318 7.08288 6.63668 7.48934 6.63668H9.40172L7.5693 5.977H7.48934C7.08288 5.977 6.75638 5.65051 6.75638 5.25071C6.75638 4.85091 7.08288 4.52441 7.48934 4.52441H9.41504L7.58929 3.86473H7.48934C7.08288 3.86473 6.75638 3.53823 6.75638 3.13177C6.75638 2.73197 7.08288 2.40545 7.48934 2.40545H13.5396C13.9394 2.40545 14.2659 2.73197 14.2659 3.13177C14.2659 3.53823 13.9394 3.86473 13.5396 3.86473H11.8738L13.6662 4.51107C13.7129 4.53106 13.7595 4.55105 13.8062 4.5777C13.8128 4.58437 13.8128 4.58437 13.8195 4.58437C14.0794 4.69099 14.2659 4.95086 14.2659 5.25071C14.2659 5.65051 13.9394 5.977 13.5396 5.977Z" fill="white"/>
<path d="M23.0417 7.12311H22.8684V7.06313L23.0417 7.12311Z" fill="white"/>
<path d="M36.4615 6.47675V6.50342C36.3882 6.49009 36.3082 6.47675 36.2216 6.47675H36.4615Z" fill="white"/>
<path d="M36.4617 7.0698V7.12311H36.3085L36.4617 7.0698Z" fill="white"/>
</svg>
