<svg width="25" height="36" viewBox="0 0 25 36" fill="none" xmlns="http://www.w3.org/2000/svg">
<path d="M14.6389 16.4159L13.9669 8.15487L20.3797 16.1919L20.7353 16.6391L14.6389 16.4159ZM20.1671 31.8355H3.56484V19.7111H20.1671V31.8355ZM23.8643 16.6391L23.7896 16.5473L23.7721 16.5308L13.8294 4.48078L13.5538 4.14776C13.3587 3.97554 13.1004 3.878 12.8187 3.878H9.37426V3.03997H4.01853V3.878H1.14815C0.516668 3.878 0 4.38905 0 5.02616V34.3953C0 35.033 0.516668 35.5435 1.14815 35.5435H22.963C23.5943 35.5435 24.1112 35.033 24.1112 34.3953V17.3401C24.1112 17.0696 24.0192 16.8286 23.8643 16.6391Z" fill="white"/>
<path d="M9.83154 2.46405H3.5647V1.90735e-06H9.83154V2.46405Z" fill="white"/>
<path d="M11.4928 29.206C11.2975 29.4702 10.9129 29.2347 10.6832 29.1085C10.4076 28.9594 9.87375 28.523 9.91967 28.144C10.0002 27.6103 10.5339 27.9718 10.8382 28.2239C11.2399 28.5918 11.5789 29.0971 11.4928 29.206ZM14.4379 25.7266L14.3919 25.6584L12.061 21.4964L9.5925 25.8823C9.36264 26.2841 9.24226 26.7492 9.24226 27.2428C9.24226 28.7979 10.5052 30.0501 12.061 30.0501C13.6167 30.0501 14.8738 28.7979 14.8738 27.2428C14.8738 26.6853 14.7132 26.163 14.4379 25.7266Z" fill="white"/>
</svg>
