<svg width="27" height="36" viewBox="0 0 27 36" fill="none" xmlns="http://www.w3.org/2000/svg">
<path d="M10.7901 32.4476C9.85351 33.5595 8.00968 32.5684 6.90873 32.0371C5.58731 31.4094 3.02761 29.5729 3.2478 27.9778C3.63396 25.7315 6.19285 27.253 7.65161 28.3139C9.57745 29.8626 11.203 31.989 10.7901 32.4476ZM24.9101 17.8038L24.6897 17.5168L13.5144 0L1.67921 18.4588C0.57716 20.1501 0 22.1074 0 24.1848C0 30.73 6.05522 36 13.5144 36C20.9728 36 27 30.73 27 24.1848C27 21.8385 26.2302 19.6403 24.9101 17.8038Z" fill="white"/>
</svg>
