<svg width="44" height="36" viewBox="0 0 44 36" fill="none" xmlns="http://www.w3.org/2000/svg">
<path d="M14.9421 14.7718C14.9421 14.9688 14.786 15.1247 14.5891 15.1247C14.399 15.1247 14.2361 14.9688 14.2361 14.7718C14.2361 14.5742 14.399 14.4119 14.5891 14.4119C14.786 14.4119 14.9421 14.5742 14.9421 14.7718Z" fill="white"/>
<path d="M26.8087 18.3222C26.2391 18.3222 25.7768 18.7839 25.7768 19.354C25.7768 19.9237 26.2391 20.3858 26.8087 20.3858C27.3789 20.3858 27.8405 19.9237 27.8405 19.354C27.8405 18.7839 27.3789 18.3222 26.8087 18.3222ZM24.0328 24.6086C22.1517 23.6104 20.8687 21.6282 20.8687 19.354C20.8687 17.4532 21.7648 15.7561 23.1632 14.6699L18.4927 13.6442C18.602 14.0046 18.6563 14.3775 18.6563 14.7717C18.6563 17.0114 16.8363 18.8383 14.5892 18.8383C14.3652 18.8383 14.1412 18.8171 13.9314 18.7839L15.2545 23.1896C15.8383 22.7417 16.5654 22.4694 17.359 22.4694C19.2598 22.4694 20.8008 24.0177 20.8008 25.918V25.9254L24.0328 24.6086ZM17.359 25.7422C17.2571 25.7422 17.1825 25.8167 17.1825 25.918C17.1825 26.0138 17.2639 26.0952 17.359 26.0952C17.454 26.0952 17.5287 26.0138 17.5287 25.918C17.5287 25.8167 17.454 25.7422 17.359 25.7422ZM26.8087 18.3222C26.2391 18.3222 25.7768 18.7839 25.7768 19.354C25.7768 19.9237 26.2391 20.3858 26.8087 20.3858C27.3789 20.3858 27.8405 19.9237 27.8405 19.354C27.8405 18.7839 27.3789 18.3222 26.8087 18.3222ZM26.8087 18.3222C26.2391 18.3222 25.7768 18.7839 25.7768 19.354C25.7768 19.9237 26.2391 20.3858 26.8087 20.3858C27.3789 20.3858 27.8405 19.9237 27.8405 19.354C27.8405 18.7839 27.3789 18.3222 26.8087 18.3222ZM24.0328 24.6086C22.1517 23.6104 20.8687 21.6282 20.8687 19.354C20.8687 17.4532 21.7648 15.7561 23.1632 14.6699L18.4927 13.6442C18.602 14.0046 18.6563 14.3775 18.6563 14.7717C18.6563 17.0114 16.8363 18.8383 14.5892 18.8383C14.3652 18.8383 14.1412 18.8171 13.9314 18.7839L15.2545 23.1896C15.8383 22.7417 16.5654 22.4694 17.359 22.4694C19.2598 22.4694 20.8008 24.0177 20.8008 25.918V25.9254L24.0328 24.6086ZM26.8087 18.3222C26.2391 18.3222 25.7768 18.7839 25.7768 19.354C25.7768 19.9237 26.2391 20.3858 26.8087 20.3858C27.3789 20.3858 27.8405 19.9237 27.8405 19.354C27.8405 18.7839 27.3789 18.3222 26.8087 18.3222ZM26.8087 18.3222C26.2391 18.3222 25.7768 18.7839 25.7768 19.354C25.7768 19.9237 26.2391 20.3858 26.8087 20.3858C27.3789 20.3858 27.8405 19.9237 27.8405 19.354C27.8405 18.7839 27.3789 18.3222 26.8087 18.3222ZM24.0328 24.6086C22.1517 23.6104 20.8687 21.6282 20.8687 19.354C20.8687 17.4532 21.7648 15.7561 23.1632 14.6699L18.4927 13.6442C18.602 14.0046 18.6563 14.3775 18.6563 14.7717C18.6563 17.0114 16.8363 18.8383 14.5892 18.8383C14.3652 18.8383 14.1412 18.8171 13.9314 18.7839L15.2545 23.1896C15.8383 22.7417 16.5654 22.4694 17.359 22.4694C19.2598 22.4694 20.8008 24.0177 20.8008 25.918V25.9254L24.0328 24.6086ZM17.359 25.7422C17.2571 25.7422 17.1825 25.8167 17.1825 25.918C17.1825 26.0138 17.2639 26.0952 17.359 26.0952C17.454 26.0952 17.5287 26.0138 17.5287 25.918C17.5287 25.8167 17.454 25.7422 17.359 25.7422ZM24.0328 24.6086C22.1517 23.6104 20.8687 21.6282 20.8687 19.354C20.8687 17.4532 21.7648 15.7561 23.1632 14.6699L18.4927 13.6442C18.602 14.0046 18.6563 14.3775 18.6563 14.7717C18.6563 17.0114 16.8363 18.8383 14.5892 18.8383C14.3652 18.8383 14.1412 18.8171 13.9314 18.7839L15.2545 23.1896C15.8383 22.7417 16.5654 22.4694 17.359 22.4694C19.2598 22.4694 20.8008 24.0177 20.8008 25.918V25.9254L24.0328 24.6086ZM26.8087 18.3222C26.2391 18.3222 25.7768 18.7839 25.7768 19.354C25.7768 19.9237 26.2391 20.3858 26.8087 20.3858C27.3789 20.3858 27.8405 19.9237 27.8405 19.354C27.8405 18.7839 27.3789 18.3222 26.8087 18.3222ZM26.8087 18.3222C26.2391 18.3222 25.7768 18.7839 25.7768 19.354C25.7768 19.9237 26.2391 20.3858 26.8087 20.3858C27.3789 20.3858 27.8405 19.9237 27.8405 19.354C27.8405 18.7839 27.3789 18.3222 26.8087 18.3222ZM24.0328 24.6086C22.1517 23.6104 20.8687 21.6282 20.8687 19.354C20.8687 17.4532 21.7648 15.7561 23.1632 14.6699L18.4927 13.6442C18.602 14.0046 18.6563 14.3775 18.6563 14.7717C18.6563 17.0114 16.8363 18.8383 14.5892 18.8383C14.3652 18.8383 14.1412 18.8171 13.9314 18.7839L15.2545 23.1896C15.8383 22.7417 16.5654 22.4694 17.359 22.4694C19.2598 22.4694 20.8008 24.0177 20.8008 25.918V25.9254L24.0328 24.6086ZM17.359 25.7422C17.2571 25.7422 17.1825 25.8167 17.1825 25.918C17.1825 26.0138 17.2639 26.0952 17.359 26.0952C17.454 26.0952 17.5287 26.0138 17.5287 25.918C17.5287 25.8167 17.454 25.7422 17.359 25.7422ZM17.359 25.7422C17.2571 25.7422 17.1825 25.8167 17.1825 25.918C17.1825 26.0138 17.2639 26.0952 17.359 26.0952C17.454 26.0952 17.5287 26.0138 17.5287 25.918C17.5287 25.8167 17.454 25.7422 17.359 25.7422ZM24.0328 24.6086C22.1517 23.6104 20.8687 21.6282 20.8687 19.354C20.8687 17.4532 21.7648 15.7561 23.1632 14.6699L18.4927 13.6442C18.602 14.0046 18.6563 14.3775 18.6563 14.7717C18.6563 17.0114 16.8363 18.8383 14.5892 18.8383C14.3652 18.8383 14.1412 18.8171 13.9314 18.7839L15.2545 23.1896C15.8383 22.7417 16.5654 22.4694 17.359 22.4694C19.2598 22.4694 20.8008 24.0177 20.8008 25.918V25.9254L24.0328 24.6086ZM26.8087 18.3222C26.2391 18.3222 25.7768 18.7839 25.7768 19.354C25.7768 19.9237 26.2391 20.3858 26.8087 20.3858C27.3789 20.3858 27.8405 19.9237 27.8405 19.354C27.8405 18.7839 27.3789 18.3222 26.8087 18.3222ZM17.1825 25.918C17.1825 26.0138 17.2639 26.0952 17.359 26.0952C17.454 26.0952 17.5287 26.0138 17.5287 25.918C17.5287 25.8167 17.454 25.7422 17.359 25.7422C17.2571 25.7422 17.1825 25.8167 17.1825 25.918ZM14.5892 18.8383C14.3652 18.8383 14.1412 18.8171 13.9314 18.7839L15.2545 23.1896C15.8383 22.7417 16.5654 22.4694 17.359 22.4694C19.2598 22.4694 20.8008 24.0177 20.8008 25.918V25.9254L24.0328 24.6086C22.1517 23.6104 20.8687 21.6282 20.8687 19.354C20.8687 17.4532 21.7648 15.7561 23.1632 14.6699L18.4927 13.6442C18.602 14.0046 18.6563 14.3775 18.6563 14.7717C18.6563 17.0114 16.8363 18.8383 14.5892 18.8383ZM27.8405 19.354C27.8405 18.7839 27.3789 18.3222 26.8087 18.3222C26.2391 18.3222 25.7768 18.7839 25.7768 19.354C25.7768 19.9237 26.2391 20.3858 26.8087 20.3858C27.3789 20.3858 27.8405 19.9237 27.8405 19.354ZM26.2045 7.88826L25.6417 7.50742L25.6953 7.43349H17.8002L17.8545 7.50742L17.1417 7.99668L12.6891 11.0789L12.7359 11.1468C13.2926 10.8617 13.9172 10.6986 14.5892 10.6986C15.2138 10.6986 15.8112 10.8405 16.3339 11.0924L26.9994 13.4201C30.1894 13.5159 32.7487 16.1356 32.7487 19.354C32.7487 21.8658 31.188 24.0177 28.9817 24.8937L28.852 24.9411L26.3267 25.8846L19.382 28.7018C18.8185 29.123 18.1125 29.3672 17.359 29.3672C15.4589 29.3672 13.9104 27.8193 13.9104 25.918C13.9104 25.878 13.9104 25.844 13.9172 25.8032L11.3314 17.2021C10.8148 16.5233 10.5161 15.6808 10.5161 14.7717C10.5161 13.6381 10.9777 12.6129 11.7312 11.88L11.6708 11.7917L7.05391 14.9889L10.0891 22.7483L14.983 35.2667H28.5126L33.4072 22.7483L36.4417 14.9958V14.9889L26.2045 7.88826ZM26.8087 18.3222C26.2391 18.3222 25.7768 18.7839 25.7768 19.354C25.7768 19.9237 26.2391 20.3858 26.8087 20.3858C27.3789 20.3858 27.8405 19.9237 27.8405 19.354C27.8405 18.7839 27.3789 18.3222 26.8087 18.3222ZM24.0328 24.6086C22.1517 23.6104 20.8687 21.6282 20.8687 19.354C20.8687 17.4532 21.7648 15.7561 23.1632 14.6699L18.4927 13.6442C18.602 14.0046 18.6563 14.3775 18.6563 14.7717C18.6563 17.0114 16.8363 18.8383 14.5892 18.8383C14.3652 18.8383 14.1412 18.8171 13.9314 18.7839L15.2545 23.1896C15.8383 22.7417 16.5654 22.4694 17.359 22.4694C19.2598 22.4694 20.8008 24.0177 20.8008 25.918V25.9254L24.0328 24.6086ZM17.359 25.7422C17.2571 25.7422 17.1825 25.8167 17.1825 25.918C17.1825 26.0138 17.2639 26.0952 17.359 26.0952C17.454 26.0952 17.5287 26.0138 17.5287 25.918C17.5287 25.8167 17.454 25.7422 17.359 25.7422ZM17.359 25.7422C17.2571 25.7422 17.1825 25.8167 17.1825 25.918C17.1825 26.0138 17.2639 26.0952 17.359 26.0952C17.454 26.0952 17.5287 26.0138 17.5287 25.918C17.5287 25.8167 17.454 25.7422 17.359 25.7422ZM24.0328 24.6086C22.1517 23.6104 20.8687 21.6282 20.8687 19.354C20.8687 17.4532 21.7648 15.7561 23.1632 14.6699L18.4927 13.6442C18.602 14.0046 18.6563 14.3775 18.6563 14.7717C18.6563 17.0114 16.8363 18.8383 14.5892 18.8383C14.3652 18.8383 14.1412 18.8171 13.9314 18.7839L15.2545 23.1896C15.8383 22.7417 16.5654 22.4694 17.359 22.4694C19.2598 22.4694 20.8008 24.0177 20.8008 25.918V25.9254L24.0328 24.6086ZM26.8087 18.3222C26.2391 18.3222 25.7768 18.7839 25.7768 19.354C25.7768 19.9237 26.2391 20.3858 26.8087 20.3858C27.3789 20.3858 27.8405 19.9237 27.8405 19.354C27.8405 18.7839 27.3789 18.3222 26.8087 18.3222ZM26.8087 18.3222C26.2391 18.3222 25.7768 18.7839 25.7768 19.354C25.7768 19.9237 26.2391 20.3858 26.8087 20.3858C27.3789 20.3858 27.8405 19.9237 27.8405 19.354C27.8405 18.7839 27.3789 18.3222 26.8087 18.3222ZM24.0328 24.6086C22.1517 23.6104 20.8687 21.6282 20.8687 19.354C20.8687 17.4532 21.7648 15.7561 23.1632 14.6699L18.4927 13.6442C18.602 14.0046 18.6563 14.3775 18.6563 14.7717C18.6563 17.0114 16.8363 18.8383 14.5892 18.8383C14.3652 18.8383 14.1412 18.8171 13.9314 18.7839L15.2545 23.1896C15.8383 22.7417 16.5654 22.4694 17.359 22.4694C19.2598 22.4694 20.8008 24.0177 20.8008 25.918V25.9254L24.0328 24.6086ZM17.359 25.7422C17.2571 25.7422 17.1825 25.8167 17.1825 25.918C17.1825 26.0138 17.2639 26.0952 17.359 26.0952C17.454 26.0952 17.5287 26.0138 17.5287 25.918C17.5287 25.8167 17.454 25.7422 17.359 25.7422ZM17.359 25.7422C17.2571 25.7422 17.1825 25.8167 17.1825 25.918C17.1825 26.0138 17.2639 26.0952 17.359 26.0952C17.454 26.0952 17.5287 26.0138 17.5287 25.918C17.5287 25.8167 17.454 25.7422 17.359 25.7422ZM24.0328 24.6086C22.1517 23.6104 20.8687 21.6282 20.8687 19.354C20.8687 17.4532 21.7648 15.7561 23.1632 14.6699L18.4927 13.6442C18.602 14.0046 18.6563 14.3775 18.6563 14.7717C18.6563 17.0114 16.8363 18.8383 14.5892 18.8383C14.3652 18.8383 14.1412 18.8171 13.9314 18.7839L15.2545 23.1896C15.8383 22.7417 16.5654 22.4694 17.359 22.4694C19.2598 22.4694 20.8008 24.0177 20.8008 25.918V25.9254L24.0328 24.6086ZM26.8087 18.3222C26.2391 18.3222 25.7768 18.7839 25.7768 19.354C25.7768 19.9237 26.2391 20.3858 26.8087 20.3858C27.3789 20.3858 27.8405 19.9237 27.8405 19.354C27.8405 18.7839 27.3789 18.3222 26.8087 18.3222ZM26.8087 18.3222C26.2391 18.3222 25.7768 18.7839 25.7768 19.354C25.7768 19.9237 26.2391 20.3858 26.8087 20.3858C27.3789 20.3858 27.8405 19.9237 27.8405 19.354C27.8405 18.7839 27.3789 18.3222 26.8087 18.3222ZM17.359 25.7422C17.2571 25.7422 17.1825 25.8167 17.1825 25.918C17.1825 26.0138 17.2639 26.0952 17.359 26.0952C17.454 26.0952 17.5287 26.0138 17.5287 25.918C17.5287 25.8167 17.454 25.7422 17.359 25.7422ZM24.0328 24.6086C22.1517 23.6104 20.8687 21.6282 20.8687 19.354C20.8687 17.4532 21.7648 15.7561 23.1632 14.6699L18.4927 13.6442C18.602 14.0046 18.6563 14.3775 18.6563 14.7717C18.6563 17.0114 16.8363 18.8383 14.5892 18.8383C14.3652 18.8383 14.1412 18.8171 13.9314 18.7839L15.2545 23.1896C15.8383 22.7417 16.5654 22.4694 17.359 22.4694C19.2598 22.4694 20.8008 24.0177 20.8008 25.918V25.9254L24.0328 24.6086ZM26.8087 18.3222C26.2391 18.3222 25.7768 18.7839 25.7768 19.354C25.7768 19.9237 26.2391 20.3858 26.8087 20.3858C27.3789 20.3858 27.8405 19.9237 27.8405 19.354C27.8405 18.7839 27.3789 18.3222 26.8087 18.3222ZM26.8087 18.3222C26.2391 18.3222 25.7768 18.7839 25.7768 19.354C25.7768 19.9237 26.2391 20.3858 26.8087 20.3858C27.3789 20.3858 27.8405 19.9237 27.8405 19.354C27.8405 18.7839 27.3789 18.3222 26.8087 18.3222Z" fill="white"/>
<path d="M26.0693 25.2535L20.3866 27.5608C20.5292 27.2966 20.6385 27.0116 20.7057 26.7061V26.6992L24.9146 24.988C25.2812 25.1177 25.6681 25.2057 26.0693 25.2535Z" fill="white"/>
<path d="M25.0301 13.6856C24.6568 13.8009 24.3038 13.9566 23.9643 14.1473H23.9575L18.194 12.8845C18.0379 12.5859 17.8478 12.3135 17.6306 12.0698L25.0301 13.6856Z" fill="white"/>
<path d="M14.7045 23.7191C14.5144 23.9498 14.3515 24.2078 14.2293 24.4788L12.3224 18.1456C12.5796 18.3222 12.8587 18.4715 13.1567 18.5733L14.7045 23.7191Z" fill="white"/>
<path d="M26.8107 21.0647C25.8678 21.0647 25.1 20.2978 25.1 19.354C25.1 18.4105 25.8678 17.6434 26.8107 17.6434C27.7544 17.6434 28.5215 18.4105 28.5215 19.354C28.5215 20.2978 27.7544 21.0647 26.8107 21.0647ZM26.8107 14.0929C23.9052 14.0929 21.5496 16.4484 21.5496 19.354C21.5496 22.2596 23.9052 24.6213 26.8107 24.6213C29.7169 24.6213 32.0719 22.2596 32.0719 19.354C32.0719 16.4484 29.7169 14.0929 26.8107 14.0929Z" fill="white"/>
<path d="M14.5915 15.8035C14.0219 15.8035 13.5596 15.3413 13.5596 14.7717C13.5596 14.2016 14.0219 13.7329 14.5915 13.7329C15.1617 13.7329 15.6233 14.2016 15.6233 14.7717C15.6233 15.3413 15.1617 15.8035 14.5915 15.8035ZM14.5915 11.3774C12.7185 11.3774 11.1972 12.8982 11.1972 14.7717C11.1972 16.6446 12.7185 18.1594 14.5915 18.1594C16.4651 18.1594 17.9797 16.6446 17.9797 14.7717C17.9797 12.8982 16.4651 11.3774 14.5915 11.3774Z" fill="white"/>
<path d="M17.3609 26.774C16.8857 26.774 16.5062 26.3871 16.5062 25.918C16.5062 25.4433 16.8857 25.0633 17.3609 25.0633C17.8293 25.0633 18.2094 25.4433 18.2094 25.918C18.2094 26.3871 17.8293 26.774 17.3609 26.774ZM17.3609 23.1482C15.8273 23.1482 14.5911 24.3906 14.5911 25.918C14.5911 27.4454 15.8273 28.6883 17.3609 28.6883C18.8883 28.6883 20.1238 27.4454 20.1238 25.918C20.1238 24.3906 18.8883 23.1482 17.3609 23.1482Z" fill="white"/>
<path d="M30.1424 4.46664H29.619V0.454794H30.1424V4.46664ZM29.1845 4.46664H28.6618V0.454794H29.1845V4.46664ZM28.2341 4.46664H27.7114V0.454794H28.2341V4.46664ZM27.2769 4.46664H26.7542V0.454794H27.2769V4.46664ZM26.3204 4.46664H25.797V0.454794H26.3204V4.46664ZM25.3693 4.46664H24.8398V0.454794H25.3693V4.46664ZM24.4121 4.46664H23.8901V0.454794H24.4121V4.46664ZM23.4549 4.46664H22.9322V0.454794H23.4549V4.46664ZM22.4977 4.46664H21.975V0.454794H22.4977V4.46664ZM21.5473 4.46664H21.0178V0.454794H21.5473V4.46664ZM20.5902 4.46664H20.0674V0.454794H20.5902V4.46664ZM19.633 4.46664H19.1109V0.454794H19.633V4.46664ZM18.6758 4.46664H18.1531V0.454794H18.6758V4.46664ZM17.7261 4.46664H17.2027V0.454794H17.7261V4.46664ZM16.7682 4.46664H16.2455V0.454794H16.7682V4.46664ZM15.811 4.46664H15.289V0.454794H15.811V4.46664ZM14.8606 4.46664H14.3318V0.454794H14.8606V4.46664ZM13.9041 4.46664H13.3807V0.454794H13.9041V4.46664ZM12.9802 2.52724e-05V4.86737H30.5151V2.52724e-05H12.9802Z" fill="white"/>
<path d="M26.2546 6.70416H17.2428V5.40218H26.2546V6.70416Z" fill="white"/>
<path d="M16.911 7.33157L16.7624 7.4334L6.80352 14.3439L2.71611 17.1811L2.21376 17.528L0.48267 15.0162C-0.372691 13.7738 -0.0604109 12.0836 1.17579 11.235L11.4326 4.16715C11.7042 3.97781 12.0029 3.84896 12.3016 3.77361V5.54611H15.6823L16.911 7.33157Z" fill="white"/>
<path d="M9.36192 22.7482H6.40957C5.60784 22.7482 5.30914 21.8591 5.30914 21.8591L3.04243 17.7717L6.47677 15.3895L9.36192 22.7482Z" fill="white"/>
<path d="M43.0139 15.0162L41.2821 17.528L40.7798 17.1811L36.693 14.3439L26.7342 7.4334L26.5848 7.33157L27.8136 5.54611H31.1943V3.77361C31.493 3.84896 31.7917 3.97781 32.0639 4.16715L42.3208 11.235C43.5563 12.0836 43.8686 13.7738 43.0139 15.0162Z" fill="white"/>
<path d="M40.4469 17.7791L38.1863 21.8591C38.1863 21.8591 37.8876 22.7482 37.0865 22.7482H34.1335L37.0125 15.3957L40.4469 17.7791Z" fill="white"/>
</svg>
