<svg width="38" height="39" viewBox="0 0 38 39" fill="none" xmlns="http://www.w3.org/2000/svg">
<path d="M30.0676 30.4639L28.853 31.5585C28.5247 31.8098 28.1372 32.0999 27.7172 32.3703C27.2312 32.7066 26.7323 32.996 26.2462 33.2275C24.0462 34.388 21.5312 35.0079 18.9837 35.0079H18.9441C16.3439 35.0013 13.8752 34.3748 11.5964 33.1484L10.1584 32.2845C9.73804 32.0069 9.41634 31.7702 9.13399 31.5328L9.12085 31.5262L8.98952 31.4339L7.89299 30.425L7.8207 30.3518C4.78063 27.3061 3.11255 23.2837 3.13232 19.0174C3.13902 18.0876 3.22418 17.2106 3.38834 16.3336C3.48041 15.7329 3.59867 15.1922 3.7497 14.6851C3.84819 14.3422 3.97933 13.9788 4.09752 13.6366L4.16962 13.4388C4.39971 12.8058 4.62953 12.3046 4.89219 11.843C7.19045 7.2536 11.6161 4.0555 16.7184 3.31631C17.2502 3.23124 17.8019 3.18508 18.3401 3.17849C18.5176 3.15804 18.7015 3.15145 18.8918 3.15145C18.8918 3.15145 19.056 3.14552 19.0627 3.14552C19.3186 3.14552 19.5418 3.15145 19.785 3.18508C20.1985 3.19167 20.7104 3.23783 21.387 3.33015C26.4694 4.10891 30.8756 7.33932 33.1866 11.9749C33.4824 12.575 33.6991 13.0695 33.8567 13.5371C34.0339 13.9261 34.1588 14.3883 34.2704 14.8169C34.4478 15.3972 34.5725 15.9709 34.6382 16.4852C34.7762 17.2759 34.8547 18.1799 34.8613 19.1294C34.8416 23.4419 33.141 27.4643 30.0676 30.4639ZM19.0688 0.000164032C8.60197 -0.0459938 0.0394547 8.47943 0.000187343 18.991C-0.0459748 29.515 8.44471 38.1203 18.9246 38.1592C29.385 38.1994 37.9473 29.6799 37.9999 19.1558C38.033 8.63835 29.5492 0.0397301 19.0688 0.000164032Z" fill="white"/>
<path d="M28.8664 28.9414L23.7839 20.5603L32.7668 16.9461C32.8915 17.6649 32.9374 18.4041 32.931 19.1294C32.9243 22.8485 31.4797 26.3301 28.8664 28.9414ZM27.6516 30.0557C27.3295 30.2931 27.0276 30.5371 26.6598 30.7745C26.6533 30.7745 26.6467 30.7877 26.6403 30.8009L21.3871 23.5013C21.7745 23.2903 22.1292 23.0265 22.4442 22.7232L27.6711 30.0287C27.6648 30.0426 27.6648 30.0425 27.6516 30.0557ZM18.9511 33.0824C16.7185 33.0692 14.5844 32.5417 12.6604 31.5328L18.9311 24.1079L25.2218 31.5922C23.2914 32.5878 21.164 33.0824 18.9511 33.0824ZM11.2486 30.702L11.2091 30.6624C10.8742 30.458 10.5525 30.214 10.2898 29.9905L10.2306 29.9436L15.5099 22.6836C15.8187 22.9929 16.1735 23.2573 16.5543 23.4617L11.2486 30.702ZM9.02911 28.8424C6.45487 26.1989 5.03664 22.7232 5.04971 19.0173C5.05641 18.2986 5.12851 17.5864 5.24033 16.8545L5.33187 16.8868L14.2099 20.5471L9.02911 28.8424ZM5.60149 15.2192C5.69972 14.8433 5.83131 14.4674 5.96901 14.0982C5.97545 14.0909 5.98234 14.0586 5.99547 14.0454L14.5118 16.8677C14.3151 17.2501 14.1771 17.6649 14.0853 18.0942L5.58172 15.2719C5.58816 15.2587 5.59479 15.2383 5.60149 15.2192ZM16.8037 5.25559L16.1011 14.9752V14.9818H16.0945L6.67162 12.5684C8.72666 8.66471 12.4829 5.94137 16.8037 5.25559ZM15.661 18.6613C15.2605 18.6613 14.9322 18.3382 14.9322 17.9353C14.9322 17.5271 15.2605 17.204 15.661 17.204C16.0618 17.204 16.3902 17.5271 16.3902 17.9353C16.3902 18.3382 16.0618 18.6613 15.661 18.6613ZM16.9219 21.1604C17.3226 21.1604 17.6509 21.4835 17.6509 21.8917C17.6509 22.2946 17.3226 22.6177 16.9219 22.6177C16.5213 22.6177 16.193 22.2946 16.193 21.8917C16.193 21.4835 16.5213 21.1604 16.9219 21.1604ZM18.9968 17.0517C20.1133 17.0517 21.0193 17.9623 21.0193 19.0833C21.0193 20.1977 20.1133 21.1076 18.9968 21.1076C17.8871 21.1076 16.9811 20.1977 16.9811 19.0833C16.9811 17.9623 17.8871 17.0517 18.9968 17.0517ZM18.9968 14.7312C19.4041 14.7312 19.7255 15.0543 19.7255 15.4625C19.7255 15.8654 19.4041 16.1885 18.9968 16.1885C18.5964 16.1885 18.268 15.8654 18.268 15.4625C18.268 15.0543 18.5964 14.7312 18.9968 14.7312ZM18.3863 5.10393C18.4386 5.09074 18.4912 5.08415 18.5374 5.08415C18.6751 5.07689 18.8064 5.07689 18.9511 5.07689H19.1479C19.2794 5.07689 19.4302 5.0769 19.6668 5.10393H19.6929L19.6601 14.0982C19.4436 14.0652 19.2202 14.052 18.9968 14.052C18.7736 14.052 18.5569 14.0652 18.3401 14.0982L18.3863 5.10393ZM21.8139 21.8917C21.8139 22.2946 21.4923 22.6177 21.0852 22.6177C20.6846 22.6177 20.3562 22.2946 20.3562 21.8917C20.3562 21.4835 20.6846 21.1604 21.0852 21.1604C21.4923 21.1604 21.8139 21.4835 21.8139 21.8917ZM23.0877 17.9353C23.0877 18.3382 22.7594 18.6613 22.359 18.6613C21.9583 18.6613 21.63 18.3382 21.63 17.9353C21.63 17.5271 21.9583 17.204 22.359 17.204C22.7594 17.204 23.0877 17.5271 23.0877 17.9353ZM31.3879 12.6541L21.9322 15.0016L21.2886 5.28197C25.6094 5.98753 29.3456 8.74384 31.3879 12.6541ZM32.0707 14.2433C32.2217 14.6059 32.34 15.0082 32.4318 15.3504C32.4318 15.3642 32.4318 15.3642 32.4385 15.3774L23.9086 18.1212C23.8295 17.6919 23.6918 17.2831 23.5081 16.9006L32.0376 14.1437C32.051 14.1839 32.051 14.203 32.0707 14.2433ZM33.9881 16.5637C33.9224 16.0368 33.7913 15.4961 33.6335 14.9818C33.5284 14.5664 33.4168 14.1509 33.2393 13.7546C33.0621 13.2476 32.8389 12.753 32.6027 12.271C30.4355 7.92617 26.2593 4.74126 21.3017 3.98229C20.77 3.91041 20.2313 3.85106 19.706 3.83787C19.4893 3.81084 19.2856 3.8049 19.0688 3.8049C18.8326 3.81084 18.6094 3.8049 18.3927 3.83787C17.861 3.84447 17.3226 3.89063 16.8101 3.96976C11.8457 4.68785 7.63709 7.83386 5.46346 12.1727C5.18774 12.6541 4.97741 13.1421 4.78679 13.6564C4.64909 14.052 4.498 14.4675 4.38 14.8763C4.2289 15.384 4.11734 15.9115 4.03191 16.4516C3.87445 17.297 3.79571 18.1403 3.78902 19.0173C3.76925 23.2632 5.50936 27.1075 8.28677 29.8843L8.33963 29.937L9.4359 30.9459L9.48206 30.9657C9.80375 31.2427 10.1585 31.4932 10.4999 31.7174L11.9053 32.5681C13.9998 33.6956 16.3835 34.3419 18.9442 34.3485C21.4725 34.3551 23.8626 33.7418 25.9636 32.634C26.45 32.4032 26.9227 32.1197 27.3626 31.8163C27.7304 31.579 28.0783 31.3218 28.4132 31.064L29.6082 29.9905C32.4185 27.2467 34.185 23.3964 34.2047 19.136C34.1981 18.265 34.1327 17.4018 33.9881 16.5637Z" fill="white"/>
</svg>
