<svg width="46" height="39" viewBox="0 0 46 39" fill="none" xmlns="http://www.w3.org/2000/svg">
<path d="M40.2076 22.3196H31.7369V20.0667H40.2076V22.3196ZM20.2604 28.0296L23.1432 22.336H20.2604L26.2563 15.4218L24.0362 20.6402L26.756 20.5747L20.2604 28.0296ZM14.82 22.3196H11.7151V25.4244H9.46228V22.3196H6.34924V20.0667H9.46228V16.9619H11.7151V20.0667H14.82V22.3196ZM2.11386 11.3011V38.4009H44.3692V11.3011H2.11386Z" fill="white"/>
<path d="M46 6.38579V9.6217H0V6.38579H46Z" fill="white"/>
<path d="M10.5849 2.45767V5.2594H5.66954V2.45767C5.66954 1.09777 6.76729 1.28746e-05 8.1272 1.28746e-05C8.80715 1.28746e-05 9.41337 0.270339 9.86394 0.72091C10.3063 1.16329 10.5849 1.77772 10.5849 2.45767Z" fill="white"/>
<path d="M40.2076 2.45767V5.2594H35.2923V2.45767C35.2923 1.09777 36.39 1.28746e-05 37.7499 1.28746e-05C38.4299 1.28746e-05 39.0443 0.270339 39.4867 0.72091C39.9372 1.16329 40.2076 1.77772 40.2076 2.45767Z" fill="white"/>
</svg>
