<svg width="65" height="40" viewBox="0 0 65 40" fill="none" xmlns="http://www.w3.org/2000/svg">
<path d="M58.1347 31.8026H6.0705V2.88303H58.1347V31.8026ZM58.8802 4.57764e-05H5.32506C4.39999 4.57764e-05 3.64557 0.691601 3.64557 1.52686V33.2935C3.64557 34.1377 4.39999 34.8203 5.32506 34.8203H58.8802C59.8052 34.8203 60.5507 34.1377 60.5507 33.2935V1.52686C60.5507 0.691601 59.8052 4.57764e-05 58.8802 4.57764e-05Z" fill="white"/>
<path d="M64.1988 36.0328C64.1988 37.7878 62.9019 39.2095 61.2978 39.2095H2.89735C1.29779 39.2095 0 37.7878 0 36.0328H64.1988Z" fill="white"/>
<path d="M54.7937 21.1958C54.7847 21.1329 54.7668 21.0791 54.7398 21.0072C54.7309 20.9892 54.7219 20.9713 54.7129 20.9443C54.6949 20.8994 54.677 20.8455 54.65 20.7916C54.6411 20.7647 54.6231 20.7369 54.6141 20.7288C54.5961 20.7108 54.5782 20.6839 54.5692 20.6659C54.5602 20.6569 54.5512 20.639 54.5423 20.621L54.4884 20.5483C54.4345 20.4953 54.3986 20.4504 54.3806 20.3965L54.3626 20.3426C54.3447 20.2878 54.3357 20.2348 54.3357 20.154C54.3357 20.1091 54.3357 20.0552 54.3267 19.9923C54.3267 19.9654 54.3177 19.9474 54.3177 19.9295V19.9025C54.2998 19.8307 54.2908 19.7588 54.2638 19.678C54.2638 19.66 54.2638 19.6421 54.2549 19.6331L54.1291 19.0762C54.1022 19.0134 54.0842 18.9505 54.0663 18.8787L54.0303 18.7439C54.0213 18.708 54.0034 18.6721 53.9944 18.6451C53.9226 18.3757 53.8507 18.1422 53.7968 17.9805C53.7789 17.9266 53.7609 17.8817 53.7519 17.8539C53.7429 17.8368 53.7339 17.8278 53.7339 17.8278L53.725 17.782C53.6711 17.6572 53.4915 17.6293 52.5844 17.5135C51.803 17.4147 50.7252 17.28 50.0337 17.0195C49.89 16.9656 49.6924 16.8839 49.4409 16.777C47.6716 16.0217 43.5402 14.2533 37.5138 14.0647C37.3881 14.0557 37.2534 14.0557 37.1187 14.0557C36.948 14.0467 36.7684 14.0467 36.5977 14.0467C33.0232 14.0288 32.8166 14.0916 32.0263 14.3341C30.9306 14.6664 28.1554 16.0765 26.3232 17.0106C25.6137 17.3608 25.0658 17.6482 24.8772 17.7201C24.5629 17.8539 23.7546 17.9715 22.7397 18.0784L22.7128 18.3029C23.7815 18.1871 24.6168 18.0784 24.9671 17.9266C25.1557 17.8458 25.6855 17.5764 26.422 17.2081C28.1374 16.337 31.0114 14.882 32.0981 14.5497C32.8615 14.3072 33.0591 14.2533 36.5977 14.2713C36.7684 14.2713 36.939 14.2713 37.1187 14.2802C37.2354 14.2713 37.3701 14.2803 37.4959 14.2892C43.4864 14.4778 47.5998 16.2292 49.3511 16.9836C49.6026 17.0914 49.8091 17.1722 49.9528 17.2351C50.6713 17.5045 51.7581 17.6392 52.5574 17.738C52.9616 17.7919 53.4106 17.8458 53.5274 17.8907C53.5274 17.8997 53.5364 17.9177 53.5364 17.9266C53.5543 17.9626 53.5633 17.9985 53.5813 18.0524C53.6352 18.205 53.716 18.4475 53.7788 18.708C53.7968 18.7349 53.8058 18.7709 53.8148 18.8068L53.8507 18.9325C53.8687 19.0134 53.8866 19.0852 53.9136 19.1481L54.0303 19.6142C54.0303 19.6331 54.0303 19.6501 54.0393 19.6959L54.0483 19.7408C54.0752 19.8028 54.0842 19.8666 54.0932 19.9295C54.0932 19.9564 54.0932 19.9744 54.1022 20.0103C54.1111 20.0731 54.1112 20.1181 54.1112 20.154C54.1112 20.2618 54.1201 20.3426 54.1561 20.4414C54.165 20.4504 54.165 20.4593 54.165 20.4683C54.201 20.5671 54.2638 20.63 54.3177 20.7009L54.3267 20.7108C54.3357 20.7288 54.3536 20.7467 54.3536 20.7467L54.3806 20.7827C54.3896 20.8006 54.3986 20.8276 54.4255 20.8545L54.4435 20.8904C54.4704 20.9353 54.4884 20.9803 54.5153 21.0431L54.5243 21.0791C54.5512 21.1329 54.5602 21.1859 54.5782 21.2407C54.7309 21.8155 54.677 23.4312 54.5333 23.7914C54.5243 23.8093 54.5153 23.8273 54.5153 23.8273C54.4165 23.8542 54.3087 23.9261 54.165 24.0339C54.1201 24.0689 54.0752 24.1048 54.0034 24.1506C53.9944 24.1686 53.9764 24.1776 53.9495 24.1866C53.9315 24.2045 53.9226 24.2135 53.9046 24.2225L53.8148 24.2854C53.7789 24.3123 53.7429 24.3294 53.707 24.3572C53.6711 24.3752 53.6351 24.4021 53.6082 24.4201C53.5364 24.456 53.4735 24.5009 53.3927 24.5368L53.222 24.6356C53.0514 24.7254 52.773 24.8063 52.4496 24.8871C52.4137 24.8871 52.3778 24.8961 52.3419 24.9051C52.3149 24.914 52.279 24.923 52.2251 24.932H52.1982C52.1712 24.941 52.1532 24.941 52.1443 24.95C51.7671 25.0308 51.3809 25.0847 51.1294 25.1206C51.1743 24.9051 51.1923 24.6715 51.1923 24.429C51.1923 22.2915 49.4589 20.5483 47.3213 20.5483C45.1928 20.5483 43.4594 22.2915 43.4594 24.429C43.4594 24.6715 43.4774 24.905 43.5223 25.1475H24.9132C24.9581 24.8781 24.985 24.6536 24.985 24.429C24.985 22.7765 23.9432 21.3575 22.4792 20.8006L22.4523 21.0342C23.7995 21.564 24.7605 22.8932 24.7605 24.429C24.7605 24.6715 24.7335 24.932 24.6617 25.2374L24.6347 25.3721H43.8007L43.7737 25.2374C43.7109 24.967 43.6839 24.6985 43.6839 24.429C43.6839 22.4172 45.3185 20.7728 47.3213 20.7728C49.3331 20.7728 50.9677 22.4172 50.9677 24.429C50.9677 24.7164 50.9408 24.9769 50.8689 25.2194L50.8599 25.3631H51.0036C51.2461 25.3362 51.7221 25.2733 52.2071 25.1655C52.2161 25.1565 52.2251 25.1565 52.2341 25.1565C52.252 25.1565 52.279 25.1475 52.279 25.1475C52.3149 25.1386 52.3508 25.1296 52.3957 25.1206C52.4227 25.1206 52.4496 25.1116 52.4945 25.1026C52.8358 25.0218 53.1412 24.932 53.3208 24.8332L53.5004 24.7344C53.5813 24.6985 53.6531 24.6536 53.7339 24.6087C53.7609 24.5817 53.7968 24.5638 53.8327 24.5458C53.8687 24.518 53.9046 24.4919 53.9585 24.456L54.0752 24.3752C54.1022 24.3572 54.1381 24.3392 54.1471 24.3213C54.201 24.2853 54.2549 24.2494 54.2998 24.2135C54.4165 24.1327 54.5243 24.0518 54.5602 24.0518L54.6231 24.0429L54.659 24.0069C54.686 23.98 54.7129 23.9261 54.7398 23.8902C54.9015 23.477 54.9554 21.8155 54.7937 21.1958ZM20.2878 20.8725L20.225 20.6569C18.5185 21.0611 17.2522 22.5969 17.2522 24.429C17.2522 24.6715 17.2701 24.905 17.315 25.1475H15.6086C15.1236 25.1475 15.1236 25.1475 14.6027 25.1116L14.0818 25.0847C13.8483 25.0757 13.6597 25.0218 13.5339 24.941C13.489 24.8961 13.4621 24.8691 13.4441 24.8422L13.4262 24.8143C13.4172 24.7883 13.4082 24.7703 13.3992 24.7524C13.3813 24.6626 13.3902 24.5727 13.4082 24.4829C13.4172 24.465 13.4262 24.447 13.4262 24.429C13.4351 24.4111 13.4351 24.4021 13.4351 24.3931C13.4351 24.3841 13.4441 24.3752 13.4441 24.3752L13.4531 24.3392C13.48 24.2934 13.498 24.2674 13.498 24.2674L13.525 24.2494V24.2135C13.5339 24.1955 13.5519 24.1686 13.5609 24.1327C13.5699 24.1237 13.5699 24.1147 13.5788 24.0967C13.5878 24.0788 13.5968 24.0518 13.5968 24.0518C13.6237 23.9979 13.6417 23.953 13.6597 23.8803C13.6687 23.8273 13.6776 23.7734 13.6776 23.7375C13.6776 23.4411 13.6776 23.1807 13.6956 22.9292L13.6866 22.4801C13.7046 22.4172 13.7046 22.3445 13.7046 22.2915V22.1927C13.7136 22.1658 13.7136 22.1298 13.7136 22.0939C13.7136 22.0481 13.7136 21.9951 13.7225 21.9233C13.7225 21.8784 13.7225 21.8335 13.7315 21.7706C13.7315 21.7526 13.7315 21.7257 13.7405 21.7077V21.635C13.7495 21.5551 13.7585 21.4832 13.7674 21.4105C13.8573 20.7369 14.0279 20.5043 14.3692 20.0372C14.441 19.9384 14.5219 19.8306 14.6027 19.7139C14.9709 19.193 17.3599 18.8607 19.6232 18.6182L19.5603 18.4026C17.1444 18.6541 14.8452 18.9864 14.4231 19.5783C14.3333 19.7049 14.2614 19.8127 14.1896 19.9025C13.8393 20.3875 13.6417 20.6569 13.5519 21.3745C13.5429 21.4563 13.525 21.5281 13.516 21.6179V21.6808C13.507 21.7167 13.507 21.7437 13.507 21.7527C13.498 21.8065 13.498 21.8694 13.498 21.9053C13.489 21.9772 13.489 22.04 13.489 22.0939C13.489 22.12 13.489 22.1478 13.48 22.1748V22.2915C13.48 22.3364 13.4801 22.3903 13.4711 22.4622V22.9292C13.4531 23.1708 13.4531 23.4411 13.4531 23.7375C13.4531 23.7644 13.4531 23.8004 13.4441 23.8444C13.4351 23.8803 13.4172 23.9081 13.3902 23.962C13.3902 23.98 13.3812 23.989 13.3723 24.0069C13.3633 24.0249 13.3543 24.0429 13.3364 24.0878L13.3184 24.1237C13.3094 24.1327 13.3004 24.1506 13.3004 24.1596C13.2914 24.1776 13.2735 24.2045 13.2555 24.2404C13.2465 24.2494 13.2465 24.2674 13.2286 24.3123L13.1926 24.4111C13.1747 24.5278 13.1477 24.6626 13.1837 24.8063C13.1926 24.8512 13.2196 24.8871 13.2286 24.923L13.2465 24.95C13.2825 25.0029 13.3274 25.0577 13.3992 25.1116C13.5609 25.2374 13.7854 25.3002 14.0728 25.3092L14.5847 25.3362C15.1236 25.3721 15.1236 25.3721 15.6086 25.3721H17.5934L17.5665 25.2374C17.5036 24.967 17.4767 24.6985 17.4767 24.429C17.4767 22.7046 18.6712 21.2497 20.2878 20.8725ZM37.9 17.8099C37.9 16.9118 37.8372 15.9238 37.6845 14.7203H37.9809C38.0707 14.7293 38.1425 14.7293 38.2054 14.7293C38.9867 14.7293 40.7112 14.9089 41.9057 15.2502C43.0193 15.5646 45.2107 16.8579 45.5161 17.2261C44.9952 17.3069 41.7709 17.5764 37.9 17.8099ZM41.9685 15.0347C40.7561 14.6844 39.0047 14.5048 38.2054 14.5048C38.1425 14.5048 38.0707 14.5048 37.9809 14.4958H37.433L37.451 14.6215C37.6126 15.9238 37.6845 16.9746 37.6755 17.9266V18.0524L37.7922 18.0425C41.5374 17.818 45.4353 17.5135 45.6508 17.4237C45.7227 17.3967 45.7676 17.3429 45.7676 17.262C45.7586 16.8309 42.9834 15.3221 41.9685 15.0347ZM37.9 17.8099C37.9 16.9118 37.8372 15.9238 37.6845 14.7203H37.9809C38.0707 14.7293 38.1425 14.7293 38.2054 14.7293C38.9867 14.7293 40.7112 14.9089 41.9057 15.2502C43.0193 15.5646 45.2107 16.8579 45.5161 17.2261C44.9952 17.3069 41.7709 17.5764 37.9 17.8099ZM41.9685 15.0347C40.7561 14.6844 39.0047 14.5048 38.2054 14.5048C38.1425 14.5048 38.0707 14.5048 37.9809 14.4958H37.433L37.451 14.6215C37.6126 15.9238 37.6845 16.9746 37.6755 17.9266V18.0524L37.7922 18.0425C41.5374 17.818 45.4353 17.5135 45.6508 17.4237C45.7227 17.3967 45.7676 17.3429 45.7676 17.262C45.7586 16.8309 42.9834 15.3221 41.9685 15.0347ZM37.9 17.8099C37.9 16.9118 37.8372 15.9238 37.6845 14.7203H37.9809C38.0707 14.7293 38.1425 14.7293 38.2054 14.7293C38.9867 14.7293 40.7112 14.9089 41.9057 15.2502C43.0193 15.5646 45.2107 16.8579 45.5161 17.2261C44.9952 17.3069 41.7709 17.5764 37.9 17.8099ZM41.9685 15.0347C40.7561 14.6844 39.0047 14.5048 38.2054 14.5048C38.1425 14.5048 38.0707 14.5048 37.9809 14.4958H37.433L37.451 14.6215C37.6126 15.9238 37.6845 16.9746 37.6755 17.9266V18.0524L37.7922 18.0425C41.5374 17.818 45.4353 17.5135 45.6508 17.4237C45.7227 17.3967 45.7676 17.3429 45.7676 17.262C45.7586 16.8309 42.9834 15.3221 41.9685 15.0347ZM37.9 17.8099C37.9 16.9118 37.8372 15.9238 37.6845 14.7203H37.9809C38.0707 14.7293 38.1425 14.7293 38.2054 14.7293C38.9867 14.7293 40.7112 14.9089 41.9057 15.2502C43.0193 15.5646 45.2107 16.8579 45.5161 17.2261C44.9952 17.3069 41.7709 17.5764 37.9 17.8099ZM41.9685 15.0347C40.7561 14.6844 39.0047 14.5048 38.2054 14.5048C38.1425 14.5048 38.0707 14.5048 37.9809 14.4958H37.433L37.451 14.6215C37.6126 15.9238 37.6845 16.9746 37.6755 17.9266V18.0524L37.7922 18.0425C41.5374 17.818 45.4353 17.5135 45.6508 17.4237C45.7227 17.3967 45.7676 17.3429 45.7676 17.262C45.7586 16.8309 42.9834 15.3221 41.9685 15.0347ZM37.9 17.8099C37.9 16.9118 37.8372 15.9238 37.6845 14.7203H37.9809C38.0707 14.7293 38.1425 14.7293 38.2054 14.7293C38.9867 14.7293 40.7112 14.9089 41.9057 15.2502C43.0193 15.5646 45.2107 16.8579 45.5161 17.2261C44.9952 17.3069 41.7709 17.5764 37.9 17.8099ZM41.9685 15.0347C40.7561 14.6844 39.0047 14.5048 38.2054 14.5048C38.1425 14.5048 38.0707 14.5048 37.9809 14.4958H37.433L37.451 14.6215C37.6126 15.9238 37.6845 16.9746 37.6755 17.9266V18.0524L37.7922 18.0425C41.5374 17.818 45.4353 17.5135 45.6508 17.4237C45.7227 17.3967 45.7676 17.3429 45.7676 17.262C45.7586 16.8309 42.9834 15.3221 41.9685 15.0347Z" fill="white"/>
<path d="M36.7955 14.7023C36.8942 14.7104 36.9841 14.7104 37.0739 14.7104V14.7023H36.7955ZM32.3318 18.1062C33.1132 18.0784 33.9664 18.0424 34.8824 17.9894C34.0472 18.0254 33.185 18.0703 32.3318 18.1062Z" fill="white"/>
<path d="M36.2471 17.9176C36.0765 17.9266 35.8879 17.9355 35.7082 17.9445C35.4298 17.9625 35.1514 17.9804 34.882 17.9894C33.9659 18.0424 33.1127 18.0783 32.3313 18.1062C32.1517 18.1152 31.981 18.1152 31.8014 18.1241C31.5769 18.1331 31.3613 18.1421 31.1548 18.1511C30.8763 18.1601 30.6069 18.1691 30.3375 18.178C30.077 18.178 29.8165 18.187 29.5741 18.187C29.2418 18.196 28.9184 18.196 28.622 18.196H28.5592C28.5502 18.187 28.5412 18.178 28.5322 18.1691H28.5861C28.6849 18.1691 28.8645 18.1242 28.9005 17.7918C28.9184 17.6392 28.9633 17.2619 28.9633 16.9557C28.9633 16.7231 28.7568 16.6063 28.5322 16.5884L29.2058 16.265C29.3316 16.2022 29.4573 16.1393 29.583 16.0854C29.7716 16.0046 29.9513 15.9238 30.1309 15.8429C30.2746 15.7711 30.4183 15.7082 30.562 15.6543C31.2985 15.331 31.9451 15.0705 32.3582 14.9268C32.4031 14.9089 32.4481 14.8909 32.493 14.8819C32.5648 14.855 32.6277 14.837 32.6816 14.819C32.7175 14.8101 32.7444 14.8011 32.7624 14.8011C32.8253 14.7921 32.9061 14.7831 32.9959 14.7652C33.2025 14.7472 33.4629 14.7292 33.7414 14.7203C34.1904 14.7023 34.7472 14.6933 35.4119 14.6933C35.8879 14.6933 36.3729 14.7023 36.795 14.7023H37.0734V14.7104C37.2261 15.8878 37.2889 16.9198 37.2889 17.8538C36.9297 17.8727 36.5884 17.8996 36.2471 17.9176ZM28.3436 17.8538C28.2089 17.7918 28.1011 17.7559 28.0203 17.8098C27.9485 17.8538 27.9395 17.9176 27.9485 17.9535C27.9485 18.0424 28.0293 18.1152 28.146 18.187C27.9664 18.187 27.7958 18.187 27.6431 18.178C27.0593 18.1691 26.6372 18.1331 26.3857 18.0882C26.4037 18.0613 26.4306 18.0424 26.4486 18.0254C26.8168 17.72 27.194 17.3967 27.679 17.1183C27.8048 17.0464 27.9125 16.9925 28.0113 16.9386C28.155 16.8758 28.2808 16.8309 28.4784 16.8129C28.4784 16.8129 28.7388 16.8129 28.7388 16.9557C28.7388 17.253 28.6939 17.6212 28.6759 17.7649C28.658 17.9445 28.6041 17.9445 28.5861 17.9445C28.5143 17.9445 28.4155 17.8996 28.3436 17.8538ZM37.4955 17.0284C37.4955 16.8309 37.4775 16.6333 37.4686 16.4177C37.4326 15.8519 37.3698 15.2412 37.2889 14.5855L37.271 14.4858H37.1722C36.6602 14.4778 36.0405 14.4688 35.4119 14.4688C34.0467 14.4688 33.1665 14.5047 32.7265 14.5766C32.5738 14.6035 32.1068 14.7741 31.4781 15.0256C31.2805 15.1065 31.056 15.1963 30.8225 15.2951C29.0082 16.0674 26.5204 17.253 25.9636 17.9086C25.9097 17.9805 25.9097 18.0424 25.9187 18.0783C25.9277 18.1331 25.9636 18.1691 26.0085 18.196C26.0444 18.2229 26.0804 18.2409 26.0983 18.2409C26.1163 18.2499 26.1432 18.2589 26.1702 18.267C26.4127 18.3397 26.8797 18.3846 27.6341 18.4026C27.8856 18.4116 28.155 18.4205 28.4514 18.4205H28.622C31.047 18.4205 34.7383 18.231 37.4057 18.0703L37.5135 18.0613V17.9535C37.5135 17.6571 37.5135 17.3518 37.4955 17.0284Z" fill="white"/>
<path d="M13.7763 21.2918L13.8607 21.2945C14.0422 21.2999 14.2254 21.3053 14.4068 21.3053C14.766 21.3053 15.0472 21.2819 15.2932 21.2307C15.8905 21.0888 16.0944 20.6227 16.2515 20.0587C15.8124 20.0299 15.3768 20.0254 15.0382 20.0254C14.8343 20.0254 14.6304 20.0272 14.4266 20.029H14.3718L14.3502 20.0596C14.0377 20.4889 13.8706 20.7179 13.7763 21.2918ZM14.4068 21.5298C14.2236 21.5298 14.0377 21.5244 13.8536 21.519L13.5186 21.5091L13.5356 21.3852C13.6335 20.6622 13.8347 20.3856 14.1688 19.9266L14.2568 19.8054L14.4248 19.8045C14.6286 19.8027 14.8334 19.8009 15.0382 19.8009C15.4154 19.8009 15.9112 19.8063 16.4042 19.8431L16.538 19.8539L16.5048 19.9841C16.3288 20.6532 16.1087 21.2675 15.3417 21.4499C15.0777 21.5046 14.7813 21.5298 14.4068 21.5298Z" fill="white"/>
<path d="M20.656 23.7644L19.3088 23.3243C19.6141 22.8214 20.1081 22.4711 20.656 22.3543V23.7644ZM20.7458 22.1119C20.0363 22.2107 19.3986 22.6687 19.0394 23.3333L18.9765 23.4501L20.144 23.8273L20.5662 23.971L20.8805 24.0689V22.0939L20.7458 22.1119ZM21.599 23.7644V22.3543C22.1558 22.4801 22.6408 22.8304 22.9372 23.3243L21.599 23.7644ZM23.2066 23.3333C22.8653 22.6866 22.2277 22.2286 21.5092 22.1119L21.3745 22.084V24.0689L23.2695 23.4501L23.2066 23.3333ZM21.123 24.0877C20.9344 24.0877 20.7907 24.2404 20.7907 24.429C20.7907 24.5996 20.9434 24.7523 21.123 24.7523C21.3026 24.7523 21.4553 24.5996 21.4553 24.429C21.4553 24.2404 21.3116 24.0877 21.123 24.0877ZM19.5243 25.8121C19.183 25.4259 18.9944 24.9409 18.9944 24.429C18.9944 24.3571 19.0034 24.2853 19.0124 24.2224L19.9285 24.5179L20.3686 24.6625L19.5243 25.8121ZM18.8328 23.9261L18.8058 24.0518C18.7879 24.1685 18.7699 24.2934 18.7699 24.429C18.7699 25.0487 19.0124 25.6325 19.4615 26.0726L19.5513 26.1615L20.2698 25.1655L20.5302 24.8143L20.7188 24.5368L18.8328 23.9261ZM22.7306 25.8121L21.9044 24.6895L21.8864 24.6625L23.2336 24.2314C23.2426 24.2934 23.2426 24.3571 23.2426 24.429C23.2426 24.9499 23.0719 25.4259 22.7306 25.8121ZM23.4402 24.0608L23.4132 23.935L21.5361 24.5368L22.7037 26.1615L22.8025 26.0726C23.2336 25.6235 23.4671 25.0388 23.4671 24.429C23.4671 24.3033 23.4581 24.1775 23.4402 24.0608ZM20.2877 26.3779L21.123 25.2194L21.9583 26.369C21.4104 26.6105 20.7997 26.6025 20.2877 26.3779ZM21.581 25.452L21.123 24.8332L19.9465 26.4588L20.0632 26.5216C20.3955 26.6923 20.7458 26.7731 21.123 26.7731C21.4822 26.7731 21.8415 26.6833 22.1828 26.5216L22.2995 26.4588L21.581 25.452ZM22.7306 25.8121L21.9044 24.6895L21.8864 24.6625L23.2336 24.2314C23.2426 24.2934 23.2426 24.3571 23.2426 24.429C23.2426 24.9499 23.0719 25.4259 22.7306 25.8121ZM23.4402 24.0608L23.4132 23.935L21.5361 24.5368L22.7037 26.1615L22.8025 26.0726C23.2336 25.6235 23.4671 25.0388 23.4671 24.429C23.4671 24.3033 23.4581 24.1775 23.4402 24.0608ZM21.599 23.7644V22.3543C22.1558 22.4801 22.6408 22.8304 22.9372 23.3243L21.599 23.7644ZM23.2066 23.3333C22.8653 22.6866 22.2277 22.2286 21.5092 22.1119L21.3745 22.084V24.0689L23.2695 23.4501L23.2066 23.3333ZM20.2877 26.3779L21.123 25.2194L21.9583 26.369C21.4104 26.6105 20.7997 26.6025 20.2877 26.3779ZM21.581 25.452L21.123 24.8332L19.9465 26.4588L20.0632 26.5216C20.3955 26.6923 20.7458 26.7731 21.123 26.7731C21.4822 26.7731 21.8415 26.6833 22.1828 26.5216L22.2995 26.4588L21.581 25.452ZM21.123 24.0877C20.9344 24.0877 20.7907 24.2404 20.7907 24.429C20.7907 24.5996 20.9434 24.7523 21.123 24.7523C21.3026 24.7523 21.4553 24.5996 21.4553 24.429C21.4553 24.2404 21.3116 24.0877 21.123 24.0877ZM20.656 23.7644L19.3088 23.3243C19.6141 22.8214 20.1081 22.4711 20.656 22.3543V23.7644ZM20.7458 22.1119C20.0363 22.2107 19.3986 22.6687 19.0394 23.3333L18.9765 23.4501L20.144 23.8273L20.5662 23.971L20.8805 24.0689V22.0939L20.7458 22.1119ZM19.5243 25.8121C19.183 25.4259 18.9944 24.9409 18.9944 24.429C18.9944 24.3571 19.0034 24.2853 19.0124 24.2224L19.9285 24.5179L20.3686 24.6625L19.5243 25.8121ZM18.8328 23.9261L18.8058 24.0518C18.7879 24.1685 18.7699 24.2934 18.7699 24.429C18.7699 25.0487 19.0124 25.6325 19.4615 26.0726L19.5513 26.1615L20.2698 25.1655L20.5302 24.8143L20.7188 24.5368L18.8328 23.9261ZM19.5243 25.8121C19.183 25.4259 18.9944 24.9409 18.9944 24.429C18.9944 24.3571 19.0034 24.2853 19.0124 24.2224L19.9285 24.5179L20.3686 24.6625L19.5243 25.8121ZM18.8328 23.9261L18.8058 24.0518C18.7879 24.1685 18.7699 24.2934 18.7699 24.429C18.7699 25.0487 19.0124 25.6325 19.4615 26.0726L19.5513 26.1615L20.2698 25.1655L20.5302 24.8143L20.7188 24.5368L18.8328 23.9261ZM20.656 23.7644L19.3088 23.3243C19.6141 22.8214 20.1081 22.4711 20.656 22.3543V23.7644ZM20.7458 22.1119C20.0363 22.2107 19.3986 22.6687 19.0394 23.3333L18.9765 23.4501L20.144 23.8273L20.5662 23.971L20.8805 24.0689V22.0939L20.7458 22.1119ZM21.123 24.0877C20.9344 24.0877 20.7907 24.2404 20.7907 24.429C20.7907 24.5996 20.9434 24.7523 21.123 24.7523C21.3026 24.7523 21.4553 24.5996 21.4553 24.429C21.4553 24.2404 21.3116 24.0877 21.123 24.0877ZM20.2877 26.3779L21.123 25.2194L21.9583 26.369C21.4104 26.6105 20.7997 26.6025 20.2877 26.3779ZM21.581 25.452L21.123 24.8332L19.9465 26.4588L20.0632 26.5216C20.3955 26.6923 20.7458 26.7731 21.123 26.7731C21.4822 26.7731 21.8415 26.6833 22.1828 26.5216L22.2995 26.4588L21.581 25.452ZM21.599 23.7644V22.3543C22.1558 22.4801 22.6408 22.8304 22.9372 23.3243L21.599 23.7644ZM23.2066 23.3333C22.8653 22.6866 22.2277 22.2286 21.5092 22.1119L21.3745 22.084V24.0689L23.2695 23.4501L23.2066 23.3333ZM22.7306 25.8121L21.9044 24.6895L21.8864 24.6625L23.2336 24.2314C23.2426 24.2934 23.2426 24.3571 23.2426 24.429C23.2426 24.9499 23.0719 25.4259 22.7306 25.8121ZM23.4402 24.0608L23.4132 23.935L21.5361 24.5368L22.7037 26.1615L22.8025 26.0726C23.2336 25.6235 23.4671 25.0388 23.4671 24.429C23.4671 24.3033 23.4581 24.1775 23.4402 24.0608ZM22.7306 25.8121L21.9044 24.6895L21.8864 24.6625L23.2336 24.2314C23.2426 24.2934 23.2426 24.3571 23.2426 24.429C23.2426 24.9499 23.0719 25.4259 22.7306 25.8121ZM23.4402 24.0608L23.4132 23.935L21.5361 24.5368L22.7037 26.1615L22.8025 26.0726C23.2336 25.6235 23.4671 25.0388 23.4671 24.429C23.4671 24.3033 23.4581 24.1775 23.4402 24.0608ZM21.599 23.7644V22.3543C22.1558 22.4801 22.6408 22.8304 22.9372 23.3243L21.599 23.7644ZM23.2066 23.3333C22.8653 22.6866 22.2277 22.2286 21.5092 22.1119L21.3745 22.084V24.0689L23.2695 23.4501L23.2066 23.3333ZM20.2877 26.3779L21.123 25.2194L21.9583 26.369C21.4104 26.6105 20.7997 26.6025 20.2877 26.3779ZM21.581 25.452L21.123 24.8332L19.9465 26.4588L20.0632 26.5216C20.3955 26.6923 20.7458 26.7731 21.123 26.7731C21.4822 26.7731 21.8415 26.6833 22.1828 26.5216L22.2995 26.4588L21.581 25.452ZM21.123 24.0877C20.9344 24.0877 20.7907 24.2404 20.7907 24.429C20.7907 24.5996 20.9434 24.7523 21.123 24.7523C21.3026 24.7523 21.4553 24.5996 21.4553 24.429C21.4553 24.2404 21.3116 24.0877 21.123 24.0877ZM20.656 23.7644L19.3088 23.3243C19.6141 22.8214 20.1081 22.4711 20.656 22.3543V23.7644ZM20.7458 22.1119C20.0363 22.2107 19.3986 22.6687 19.0394 23.3333L18.9765 23.4501L20.144 23.8273L20.5662 23.971L20.8805 24.0689V22.0939L20.7458 22.1119ZM19.5243 25.8121C19.183 25.4259 18.9944 24.9409 18.9944 24.429C18.9944 24.3571 19.0034 24.2853 19.0124 24.2224L19.9285 24.5179L20.3686 24.6625L19.5243 25.8121ZM18.8328 23.9261L18.8058 24.0518C18.7879 24.1685 18.7699 24.2934 18.7699 24.429C18.7699 25.0487 19.0124 25.6325 19.4615 26.0726L19.5513 26.1615L20.2698 25.1655L20.5302 24.8143L20.7188 24.5368L18.8328 23.9261ZM19.5243 25.8121C19.183 25.4259 18.9944 24.9409 18.9944 24.429C18.9944 24.3571 19.0034 24.2853 19.0124 24.2224L19.9285 24.5179L20.3686 24.6625L19.5243 25.8121ZM18.8328 23.9261L18.8058 24.0518C18.7879 24.1685 18.7699 24.2934 18.7699 24.429C18.7699 25.0487 19.0124 25.6325 19.4615 26.0726L19.5513 26.1615L20.2698 25.1655L20.5302 24.8143L20.7188 24.5368L18.8328 23.9261ZM20.656 23.7644L19.3088 23.3243C19.6141 22.8214 20.1081 22.4711 20.656 22.3543V23.7644ZM20.7458 22.1119C20.0363 22.2107 19.3986 22.6687 19.0394 23.3333L18.9765 23.4501L20.144 23.8273L20.5662 23.971L20.8805 24.0689V22.0939L20.7458 22.1119ZM21.123 24.0877C20.9344 24.0877 20.7907 24.2404 20.7907 24.429C20.7907 24.5996 20.9434 24.7523 21.123 24.7523C21.3026 24.7523 21.4553 24.5996 21.4553 24.429C21.4553 24.2404 21.3116 24.0877 21.123 24.0877ZM20.2877 26.3779L21.123 25.2194L21.9583 26.369C21.4104 26.6105 20.7997 26.6025 20.2877 26.3779ZM21.581 25.452L21.123 24.8332L19.9465 26.4588L20.0632 26.5216C20.3955 26.6923 20.7458 26.7731 21.123 26.7731C21.4822 26.7731 21.8415 26.6833 22.1828 26.5216L22.2995 26.4588L21.581 25.452ZM21.599 23.7644V22.3543C22.1558 22.4801 22.6408 22.8304 22.9372 23.3243L21.599 23.7644ZM23.2066 23.3333C22.8653 22.6866 22.2277 22.2286 21.5092 22.1119L21.3745 22.084V24.0689L23.2695 23.4501L23.2066 23.3333ZM22.7306 25.8121L21.9044 24.6895L21.8864 24.6625L23.2336 24.2314C23.2426 24.2934 23.2426 24.3571 23.2426 24.429C23.2426 24.9499 23.0719 25.4259 22.7306 25.8121ZM23.4402 24.0608L23.4132 23.935L21.5361 24.5368L22.7037 26.1615L22.8025 26.0726C23.2336 25.6235 23.4671 25.0388 23.4671 24.429C23.4671 24.3033 23.4581 24.1775 23.4402 24.0608ZM22.7306 25.8121L21.9044 24.6895L21.8864 24.6625L23.2336 24.2314C23.2426 24.2934 23.2426 24.3571 23.2426 24.429C23.2426 24.9499 23.0719 25.4259 22.7306 25.8121ZM23.4402 24.0608L23.4132 23.935L21.5361 24.5368L22.7037 26.1615L22.8025 26.0726C23.2336 25.6235 23.4671 25.0388 23.4671 24.429C23.4671 24.3033 23.4581 24.1775 23.4402 24.0608ZM21.599 23.7644V22.3543C22.1558 22.4801 22.6408 22.8304 22.9372 23.3243L21.599 23.7644ZM23.2066 23.3333C22.8653 22.6866 22.2277 22.2286 21.5092 22.1119L21.3745 22.084V24.0689L23.2695 23.4501L23.2066 23.3333ZM20.2877 26.3779L21.123 25.2194L21.9583 26.369C21.4104 26.6105 20.7997 26.6025 20.2877 26.3779ZM21.581 25.452L21.123 24.8332L19.9465 26.4588L20.0632 26.5216C20.3955 26.6923 20.7458 26.7731 21.123 26.7731C21.4822 26.7731 21.8415 26.6833 22.1828 26.5216L22.2995 26.4588L21.581 25.452ZM21.123 24.0877C20.9344 24.0877 20.7907 24.2404 20.7907 24.429C20.7907 24.5996 20.9434 24.7523 21.123 24.7523C21.3026 24.7523 21.4553 24.5996 21.4553 24.429C21.4553 24.2404 21.3116 24.0877 21.123 24.0877ZM20.656 23.7644L19.3088 23.3243C19.6141 22.8214 20.1081 22.4711 20.656 22.3543V23.7644ZM20.7458 22.1119C20.0363 22.2107 19.3986 22.6687 19.0394 23.3333L18.9765 23.4501L20.144 23.8273L20.5662 23.971L20.8805 24.0689V22.0939L20.7458 22.1119ZM19.5243 25.8121C19.183 25.4259 18.9944 24.9409 18.9944 24.429C18.9944 24.3571 19.0034 24.2853 19.0124 24.2224L19.9285 24.5179L20.3686 24.6625L19.5243 25.8121ZM18.8328 23.9261L18.8058 24.0518C18.7879 24.1685 18.7699 24.2934 18.7699 24.429C18.7699 25.0487 19.0124 25.6325 19.4615 26.0726L19.5513 26.1615L20.2698 25.1655L20.5302 24.8143L20.7188 24.5368L18.8328 23.9261ZM19.5243 25.8121C19.183 25.4259 18.9944 24.9409 18.9944 24.429C18.9944 24.3571 19.0034 24.2853 19.0124 24.2224L19.9285 24.5179L20.3686 24.6625L19.5243 25.8121ZM18.8328 23.9261L18.8058 24.0518C18.7879 24.1685 18.7699 24.2934 18.7699 24.429C18.7699 25.0487 19.0124 25.6325 19.4615 26.0726L19.5513 26.1615L20.2698 25.1655L20.5302 24.8143L20.7188 24.5368L18.8328 23.9261ZM20.656 23.7644L19.3088 23.3243C19.6141 22.8214 20.1081 22.4711 20.656 22.3543V23.7644ZM20.7458 22.1119C20.0363 22.2107 19.3986 22.6687 19.0394 23.3333L18.9765 23.4501L20.144 23.8273L20.5662 23.971L20.8805 24.0689V22.0939L20.7458 22.1119ZM21.123 24.0877C20.9344 24.0877 20.7907 24.2404 20.7907 24.429C20.7907 24.5996 20.9434 24.7523 21.123 24.7523C21.3026 24.7523 21.4553 24.5996 21.4553 24.429C21.4553 24.2404 21.3116 24.0877 21.123 24.0877ZM20.2877 26.3779L21.123 25.2194L21.9583 26.369C21.4104 26.6105 20.7997 26.6025 20.2877 26.3779ZM21.581 25.452L21.123 24.8332L19.9465 26.4588L20.0632 26.5216C20.3955 26.6923 20.7458 26.7731 21.123 26.7731C21.4822 26.7731 21.8415 26.6833 22.1828 26.5216L22.2995 26.4588L21.581 25.452ZM21.599 23.7644V22.3543C22.1558 22.4801 22.6408 22.8304 22.9372 23.3243L21.599 23.7644ZM23.2066 23.3333C22.8653 22.6866 22.2277 22.2286 21.5092 22.1119L21.3745 22.084V24.0689L23.2695 23.4501L23.2066 23.3333ZM22.7306 25.8121L21.9044 24.6895L21.8864 24.6625L23.2336 24.2314C23.2426 24.2934 23.2426 24.3571 23.2426 24.429C23.2426 24.9499 23.0719 25.4259 22.7306 25.8121ZM23.4402 24.0608L23.4132 23.935L21.5361 24.5368L22.7037 26.1615L22.8025 26.0726C23.2336 25.6235 23.4671 25.0388 23.4671 24.429C23.4671 24.3033 23.4581 24.1775 23.4402 24.0608ZM22.7306 25.8121L21.9044 24.6895L21.8864 24.6625L23.2336 24.2314C23.2426 24.2934 23.2426 24.3571 23.2426 24.429C23.2426 24.9499 23.0719 25.4259 22.7306 25.8121ZM23.4402 24.0608L23.4132 23.935L21.5361 24.5368L22.7037 26.1615L22.8025 26.0726C23.2336 25.6235 23.4671 25.0388 23.4671 24.429C23.4671 24.3033 23.4581 24.1775 23.4402 24.0608ZM21.599 23.7644V22.3543C22.1558 22.4801 22.6408 22.8304 22.9372 23.3243L21.599 23.7644ZM23.2066 23.3333C22.8653 22.6866 22.2277 22.2286 21.5092 22.1119L21.3745 22.084V24.0689L23.2695 23.4501L23.2066 23.3333ZM20.2877 26.3779L21.123 25.2194L21.9583 26.369C21.4104 26.6105 20.7997 26.6025 20.2877 26.3779ZM21.581 25.452L21.123 24.8332L19.9465 26.4588L20.0632 26.5216C20.3955 26.6923 20.7458 26.7731 21.123 26.7731C21.4822 26.7731 21.8415 26.6833 22.1828 26.5216L22.2995 26.4588L21.581 25.452ZM21.123 24.0877C20.9344 24.0877 20.7907 24.2404 20.7907 24.429C20.7907 24.5996 20.9434 24.7523 21.123 24.7523C21.3026 24.7523 21.4553 24.5996 21.4553 24.429C21.4553 24.2404 21.3116 24.0877 21.123 24.0877ZM20.656 23.7644L19.3088 23.3243C19.6141 22.8214 20.1081 22.4711 20.656 22.3543V23.7644ZM20.7458 22.1119C20.0363 22.2107 19.3986 22.6687 19.0394 23.3333L18.9765 23.4501L20.144 23.8273L20.5662 23.971L20.8805 24.0689V22.0939L20.7458 22.1119ZM19.5243 25.8121C19.183 25.4259 18.9944 24.9409 18.9944 24.429C18.9944 24.3571 19.0034 24.2853 19.0124 24.2224L19.9285 24.5179L20.3686 24.6625L19.5243 25.8121ZM18.8328 23.9261L18.8058 24.0518C18.7879 24.1685 18.7699 24.2934 18.7699 24.429C18.7699 25.0487 19.0124 25.6325 19.4615 26.0726L19.5513 26.1615L20.2698 25.1655L20.5302 24.8143L20.7188 24.5368L18.8328 23.9261ZM19.5243 25.8121C19.183 25.4259 18.9944 24.9409 18.9944 24.429C18.9944 24.3571 19.0034 24.2853 19.0124 24.2224L19.9285 24.5179L20.3686 24.6625L19.5243 25.8121ZM18.8328 23.9261L18.8058 24.0518C18.7879 24.1685 18.7699 24.2934 18.7699 24.429C18.7699 25.0487 19.0124 25.6325 19.4615 26.0726L19.5513 26.1615L20.2698 25.1655L20.5302 24.8143L20.7188 24.5368L18.8328 23.9261ZM20.656 23.7644L19.3088 23.3243C19.6141 22.8214 20.1081 22.4711 20.656 22.3543V23.7644ZM20.7458 22.1119C20.0363 22.2107 19.3986 22.6687 19.0394 23.3333L18.9765 23.4501L20.144 23.8273L20.5662 23.971L20.8805 24.0689V22.0939L20.7458 22.1119ZM21.123 24.0877C20.9344 24.0877 20.7907 24.2404 20.7907 24.429C20.7907 24.5996 20.9434 24.7523 21.123 24.7523C21.3026 24.7523 21.4553 24.5996 21.4553 24.429C21.4553 24.2404 21.3116 24.0877 21.123 24.0877ZM20.2877 26.3779L21.123 25.2194L21.9583 26.369C21.4104 26.6105 20.7997 26.6025 20.2877 26.3779ZM21.581 25.452L21.123 24.8332L19.9465 26.4588L20.0632 26.5216C20.3955 26.6923 20.7458 26.7731 21.123 26.7731C21.4822 26.7731 21.8415 26.6833 22.1828 26.5216L22.2995 26.4588L21.581 25.452ZM21.599 23.7644V22.3543C22.1558 22.4801 22.6408 22.8304 22.9372 23.3243L21.599 23.7644ZM23.2066 23.3333C22.8653 22.6866 22.2277 22.2286 21.5092 22.1119L21.3745 22.084V24.0689L23.2695 23.4501L23.2066 23.3333ZM22.7306 25.8121L21.9044 24.6895L21.8864 24.6625L23.2336 24.2314C23.2426 24.2934 23.2426 24.3571 23.2426 24.429C23.2426 24.9499 23.0719 25.4259 22.7306 25.8121ZM23.4402 24.0608L23.4132 23.935L21.5361 24.5368L22.7037 26.1615L22.8025 26.0726C23.2336 25.6235 23.4671 25.0388 23.4671 24.429C23.4671 24.3033 23.4581 24.1775 23.4402 24.0608ZM22.7306 25.8121L21.9044 24.6895L21.8864 24.6625L23.2336 24.2314C23.2426 24.2934 23.2426 24.3571 23.2426 24.429C23.2426 24.9499 23.0719 25.4259 22.7306 25.8121ZM23.4402 24.0608L23.4132 23.935L21.5361 24.5368L22.7037 26.1615L22.8025 26.0726C23.2336 25.6235 23.4671 25.0388 23.4671 24.429C23.4671 24.3033 23.4581 24.1775 23.4402 24.0608ZM21.599 23.7644V22.3543C22.1558 22.4801 22.6408 22.8304 22.9372 23.3243L21.599 23.7644ZM23.2066 23.3333C22.8653 22.6866 22.2277 22.2286 21.5092 22.1119L21.3745 22.084V24.0689L23.2695 23.4501L23.2066 23.3333ZM20.2877 26.3779L21.123 25.2194L21.9583 26.369C21.4104 26.6105 20.7997 26.6025 20.2877 26.3779ZM21.581 25.452L21.123 24.8332L19.9465 26.4588L20.0632 26.5216C20.3955 26.6923 20.7458 26.7731 21.123 26.7731C21.4822 26.7731 21.8415 26.6833 22.1828 26.5216L22.2995 26.4588L21.581 25.452ZM21.123 24.0877C20.9344 24.0877 20.7907 24.2404 20.7907 24.429C20.7907 24.5996 20.9434 24.7523 21.123 24.7523C21.3026 24.7523 21.4553 24.5996 21.4553 24.429C21.4553 24.2404 21.3116 24.0877 21.123 24.0877ZM20.656 23.7644L19.3088 23.3243C19.6141 22.8214 20.1081 22.4711 20.656 22.3543V23.7644ZM20.7458 22.1119C20.0363 22.2107 19.3986 22.6687 19.0394 23.3333L18.9765 23.4501L20.144 23.8273L20.5662 23.971L20.8805 24.0689V22.0939L20.7458 22.1119ZM19.5243 25.8121C19.183 25.4259 18.9944 24.9409 18.9944 24.429C18.9944 24.3571 19.0034 24.2853 19.0124 24.2224L19.9285 24.5179L20.3686 24.6625L19.5243 25.8121ZM18.8328 23.9261L18.8058 24.0518C18.7879 24.1685 18.7699 24.2934 18.7699 24.429C18.7699 25.0487 19.0124 25.6325 19.4615 26.0726L19.5513 26.1615L20.2698 25.1655L20.5302 24.8143L20.7188 24.5368L18.8328 23.9261ZM19.5243 25.8121C19.183 25.4259 18.9944 24.9409 18.9944 24.429C18.9944 24.3571 19.0034 24.2853 19.0124 24.2224L19.9285 24.5179L20.3686 24.6625L19.5243 25.8121ZM18.8328 23.9261L18.8058 24.0518C18.7879 24.1685 18.7699 24.2934 18.7699 24.429C18.7699 25.0487 19.0124 25.6325 19.4615 26.0726L19.5513 26.1615L20.2698 25.1655L20.5302 24.8143L20.7188 24.5368L18.8328 23.9261ZM20.656 23.7644L19.3088 23.3243C19.6141 22.8214 20.1081 22.4711 20.656 22.3543V23.7644ZM20.7458 22.1119C20.0363 22.2107 19.3986 22.6687 19.0394 23.3333L18.9765 23.4501L20.144 23.8273L20.5662 23.971L20.8805 24.0689V22.0939L20.7458 22.1119ZM21.123 24.0877C20.9344 24.0877 20.7907 24.2404 20.7907 24.429C20.7907 24.5996 20.9434 24.7523 21.123 24.7523C21.3026 24.7523 21.4553 24.5996 21.4553 24.429C21.4553 24.2404 21.3116 24.0877 21.123 24.0877ZM20.2877 26.3779L21.123 25.2194L21.9583 26.369C21.4104 26.6105 20.7997 26.6025 20.2877 26.3779ZM21.581 25.452L21.123 24.8332L19.9465 26.4588L20.0632 26.5216C20.3955 26.6923 20.7458 26.7731 21.123 26.7731C21.4822 26.7731 21.8415 26.6833 22.1828 26.5216L22.2995 26.4588L21.581 25.452ZM21.599 23.7644V22.3543C22.1558 22.4801 22.6408 22.8304 22.9372 23.3243L21.599 23.7644ZM23.2066 23.3333C22.8653 22.6866 22.2277 22.2286 21.5092 22.1119L21.3745 22.084V24.0689L23.2695 23.4501L23.2066 23.3333ZM22.7306 25.8121L21.9044 24.6895L21.8864 24.6625L23.2336 24.2314C23.2426 24.2934 23.2426 24.3571 23.2426 24.429C23.2426 24.9499 23.0719 25.4259 22.7306 25.8121ZM23.4402 24.0608L23.4132 23.935L21.5361 24.5368L22.7037 26.1615L22.8025 26.0726C23.2336 25.6235 23.4671 25.0388 23.4671 24.429C23.4671 24.3033 23.4581 24.1775 23.4402 24.0608ZM22.7306 25.8121L21.9044 24.6895L21.8864 24.6625L23.2336 24.2314C23.2426 24.2934 23.2426 24.3571 23.2426 24.429C23.2426 24.9499 23.0719 25.4259 22.7306 25.8121ZM23.4402 24.0608L23.4132 23.935L21.5361 24.5368L22.7037 26.1615L22.8025 26.0726C23.2336 25.6235 23.4671 25.0388 23.4671 24.429C23.4671 24.3033 23.4581 24.1775 23.4402 24.0608ZM21.599 23.7644V22.3543C22.1558 22.4801 22.6408 22.8304 22.9372 23.3243L21.599 23.7644ZM23.2066 23.3333C22.8653 22.6866 22.2277 22.2286 21.5092 22.1119L21.3745 22.084V24.0689L23.2695 23.4501L23.2066 23.3333ZM20.2877 26.3779L21.123 25.2194L21.9583 26.369C21.4104 26.6105 20.7997 26.6025 20.2877 26.3779ZM21.581 25.452L21.123 24.8332L19.9465 26.4588L20.0632 26.5216C20.3955 26.6923 20.7458 26.7731 21.123 26.7731C21.4822 26.7731 21.8415 26.6833 22.1828 26.5216L22.2995 26.4588L21.581 25.452ZM21.123 24.0877C20.9344 24.0877 20.7907 24.2404 20.7907 24.429C20.7907 24.5996 20.9434 24.7523 21.123 24.7523C21.3026 24.7523 21.4553 24.5996 21.4553 24.429C21.4553 24.2404 21.3116 24.0877 21.123 24.0877ZM20.656 23.7644L19.3088 23.3243C19.6141 22.8214 20.1081 22.4711 20.656 22.3543V23.7644ZM20.7458 22.1119C20.0363 22.2107 19.3986 22.6687 19.0394 23.3333L18.9765 23.4501L20.144 23.8273L20.5662 23.971L20.8805 24.0689V22.0939L20.7458 22.1119ZM19.5243 25.8121C19.183 25.4259 18.9944 24.9409 18.9944 24.429C18.9944 24.3571 19.0034 24.2853 19.0124 24.2224L19.9285 24.5179L20.3686 24.6625L19.5243 25.8121ZM18.8328 23.9261L18.8058 24.0518C18.7879 24.1685 18.7699 24.2934 18.7699 24.429C18.7699 25.0487 19.0124 25.6325 19.4615 26.0726L19.5513 26.1615L20.2698 25.1655L20.5302 24.8143L20.7188 24.5368L18.8328 23.9261ZM19.5243 25.8121C19.183 25.4259 18.9944 24.9409 18.9944 24.429C18.9944 24.3571 19.0034 24.2853 19.0124 24.2224L19.9285 24.5179L20.3686 24.6625L19.5243 25.8121ZM18.8328 23.9261L18.8058 24.0518C18.7879 24.1685 18.7699 24.2934 18.7699 24.429C18.7699 25.0487 19.0124 25.6325 19.4615 26.0726L19.5513 26.1615L20.2698 25.1655L20.5302 24.8143L20.7188 24.5368L18.8328 23.9261ZM20.656 23.7644L19.3088 23.3243C19.6141 22.8214 20.1081 22.4711 20.656 22.3543V23.7644ZM20.7458 22.1119C20.0363 22.2107 19.3986 22.6687 19.0394 23.3333L18.9765 23.4501L20.144 23.8273L20.5662 23.971L20.8805 24.0689V22.0939L20.7458 22.1119ZM21.123 24.0877C20.9344 24.0877 20.7907 24.2404 20.7907 24.429C20.7907 24.5996 20.9434 24.7523 21.123 24.7523C21.3026 24.7523 21.4553 24.5996 21.4553 24.429C21.4553 24.2404 21.3116 24.0877 21.123 24.0877ZM20.2877 26.3779L21.123 25.2194L21.9583 26.369C21.4104 26.6105 20.7997 26.6025 20.2877 26.3779ZM21.581 25.452L21.123 24.8332L19.9465 26.4588L20.0632 26.5216C20.3955 26.6923 20.7458 26.7731 21.123 26.7731C21.4822 26.7731 21.8415 26.6833 22.1828 26.5216L22.2995 26.4588L21.581 25.452ZM21.599 23.7644V22.3543C22.1558 22.4801 22.6408 22.8304 22.9372 23.3243L21.599 23.7644ZM23.2066 23.3333C22.8653 22.6866 22.2277 22.2286 21.5092 22.1119L21.3745 22.084V24.0689L23.2695 23.4501L23.2066 23.3333ZM22.7306 25.8121L21.9044 24.6895L21.8864 24.6625L23.2336 24.2314C23.2426 24.2934 23.2426 24.3571 23.2426 24.429C23.2426 24.9499 23.0719 25.4259 22.7306 25.8121ZM23.4402 24.0608L23.4132 23.935L21.5361 24.5368L22.7037 26.1615L22.8025 26.0726C23.2336 25.6235 23.4671 25.0388 23.4671 24.429C23.4671 24.3033 23.4581 24.1775 23.4402 24.0608ZM19.5243 25.8121C19.183 25.4259 18.9944 24.9409 18.9944 24.429C18.9944 24.3571 19.0034 24.2853 19.0124 24.2224L19.9285 24.5179L20.3686 24.6625L19.5243 25.8121ZM18.8328 23.9261L18.8058 24.0518C18.7879 24.1685 18.7699 24.2934 18.7699 24.429C18.7699 25.0487 19.0124 25.6325 19.4615 26.0726L19.5513 26.1615L20.2698 25.1655L20.5302 24.8143L20.7188 24.5368L18.8328 23.9261ZM20.656 23.7644L19.3088 23.3243C19.6141 22.8214 20.1081 22.4711 20.656 22.3543V23.7644ZM20.7458 22.1119C20.0363 22.2107 19.3986 22.6687 19.0394 23.3333L18.9765 23.4501L20.144 23.8273L20.5662 23.971L20.8805 24.0689V22.0939L20.7458 22.1119ZM21.123 24.0877C20.9344 24.0877 20.7907 24.2404 20.7907 24.429C20.7907 24.5996 20.9434 24.7523 21.123 24.7523C21.3026 24.7523 21.4553 24.5996 21.4553 24.429C21.4553 24.2404 21.3116 24.0877 21.123 24.0877ZM20.2877 26.3779L21.123 25.2194L21.9583 26.369C21.4104 26.6105 20.7997 26.6025 20.2877 26.3779ZM21.581 25.452L21.123 24.8332L19.9465 26.4588L20.0632 26.5216C20.3955 26.6923 20.7458 26.7731 21.123 26.7731C21.4822 26.7731 21.8415 26.6833 22.1828 26.5216L22.2995 26.4588L21.581 25.452ZM21.599 23.7644V22.3543C22.1558 22.4801 22.6408 22.8304 22.9372 23.3243L21.599 23.7644ZM23.2066 23.3333C22.8653 22.6866 22.2277 22.2286 21.5092 22.1119L21.3745 22.084V24.0689L23.2695 23.4501L23.2066 23.3333ZM22.7306 25.8121L21.9044 24.6895L21.8864 24.6625L23.2336 24.2314C23.2426 24.2934 23.2426 24.3571 23.2426 24.429C23.2426 24.9499 23.0719 25.4259 22.7306 25.8121ZM23.4402 24.0608L23.4132 23.935L21.5361 24.5368L22.7037 26.1615L22.8025 26.0726C23.2336 25.6235 23.4671 25.0388 23.4671 24.429C23.4671 24.3033 23.4581 24.1775 23.4402 24.0608ZM19.5243 25.8121C19.183 25.4259 18.9944 24.9409 18.9944 24.429C18.9944 24.3571 19.0034 24.2853 19.0124 24.2224L19.9285 24.5179L20.3686 24.6625L19.5243 25.8121ZM18.8328 23.9261L18.8058 24.0518C18.7879 24.1685 18.7699 24.2934 18.7699 24.429C18.7699 25.0487 19.0124 25.6325 19.4615 26.0726L19.5513 26.1615L20.2698 25.1655L20.5302 24.8143L20.7188 24.5368L18.8328 23.9261ZM20.656 23.7644L19.3088 23.3243C19.6141 22.8214 20.1081 22.4711 20.656 22.3543V23.7644ZM20.7458 22.1119C20.0363 22.2107 19.3986 22.6687 19.0394 23.3333L18.9765 23.4501L20.144 23.8273L20.5662 23.971L20.8805 24.0689V22.0939L20.7458 22.1119ZM21.123 24.0877C20.9344 24.0877 20.7907 24.2404 20.7907 24.429C20.7907 24.5996 20.9434 24.7523 21.123 24.7523C21.3026 24.7523 21.4553 24.5996 21.4553 24.429C21.4553 24.2404 21.3116 24.0877 21.123 24.0877ZM20.2877 26.3779L21.123 25.2194L21.9583 26.369C21.4104 26.6105 20.7997 26.6025 20.2877 26.3779ZM21.581 25.452L21.123 24.8332L19.9465 26.4588L20.0632 26.5216C20.3955 26.6923 20.7458 26.7731 21.123 26.7731C21.4822 26.7731 21.8415 26.6833 22.1828 26.5216L22.2995 26.4588L21.581 25.452ZM21.599 23.7644V22.3543C22.1558 22.4801 22.6408 22.8304 22.9372 23.3243L21.599 23.7644ZM23.2066 23.3333C22.8653 22.6866 22.2277 22.2286 21.5092 22.1119L21.3745 22.084V24.0689L23.2695 23.4501L23.2066 23.3333ZM22.7306 25.8121L21.9044 24.6895L21.8864 24.6625L23.2336 24.2314C23.2426 24.2934 23.2426 24.3571 23.2426 24.429C23.2426 24.9499 23.0719 25.4259 22.7306 25.8121ZM23.4402 24.0608L23.4132 23.935L21.5361 24.5368L22.7037 26.1615L22.8025 26.0726C23.2336 25.6235 23.4671 25.0388 23.4671 24.429C23.4671 24.3033 23.4581 24.1775 23.4402 24.0608ZM19.5243 25.8121C19.183 25.4259 18.9944 24.9409 18.9944 24.429C18.9944 24.3571 19.0034 24.2853 19.0124 24.2224L19.9285 24.5179L20.3686 24.6625L19.5243 25.8121ZM20.7188 24.5368L18.8328 23.9261L18.8058 24.0518C18.7879 24.1685 18.7699 24.2934 18.7699 24.429C18.7699 25.0487 19.0124 25.6325 19.4615 26.0726L19.5513 26.1615L20.2698 25.1655L20.5302 24.8143L20.7188 24.5368ZM20.656 22.3543V23.7644L19.3088 23.3243C19.6141 22.8214 20.1081 22.4711 20.656 22.3543ZM19.0394 23.3333L18.9765 23.4501L20.144 23.8273L20.5662 23.971L20.8805 24.0689V22.0939L20.7458 22.1119C20.0363 22.2107 19.3986 22.6687 19.0394 23.3333ZM21.123 24.7523C21.3026 24.7523 21.4553 24.5996 21.4553 24.429C21.4553 24.2404 21.3116 24.0877 21.123 24.0877C20.9344 24.0877 20.7907 24.2404 20.7907 24.429C20.7907 24.5996 20.9434 24.7523 21.123 24.7523ZM21.123 25.2194L21.9583 26.369C21.4104 26.6105 20.7997 26.6025 20.2877 26.3779L21.123 25.2194ZM21.123 26.7731C21.4822 26.7731 21.8415 26.6833 22.1828 26.5216L22.2995 26.4588L21.581 25.452L21.123 24.8332L19.9465 26.4588L20.0632 26.5216C20.3955 26.6923 20.7458 26.7731 21.123 26.7731ZM21.599 23.7644V22.3543C22.1558 22.4801 22.6408 22.8304 22.9372 23.3243L21.599 23.7644ZM23.2066 23.3333C22.8653 22.6866 22.2277 22.2286 21.5092 22.1119L21.3745 22.084V24.0689L23.2695 23.4501L23.2066 23.3333ZM21.8864 24.6625L23.2336 24.2314C23.2426 24.2934 23.2426 24.3571 23.2426 24.429C23.2426 24.9499 23.0719 25.4259 22.7306 25.8121L21.9044 24.6895L21.8864 24.6625ZM22.8025 26.0726C23.2336 25.6235 23.4671 25.0388 23.4671 24.429C23.4671 24.3033 23.4581 24.1775 23.4402 24.0608L23.4132 23.935L21.5361 24.5368L22.7037 26.1615L22.8025 26.0726ZM22.4073 21.537L22.3804 21.7795C23.3683 22.2466 24.0599 23.2525 24.0599 24.429C24.0599 26.0366 22.7396 27.3569 21.123 27.3569C19.5064 27.3569 18.1951 26.0366 18.1951 24.429C18.1951 23.018 19.183 21.8424 20.4943 21.564L20.4314 21.3485C19.0214 21.6628 17.9706 22.9202 17.9706 24.429C17.9706 26.1615 19.3806 27.5814 21.123 27.5814C22.8654 27.5814 24.2844 26.1615 24.2844 24.429C24.2844 23.1357 23.512 22.031 22.4073 21.537ZM22.7306 25.8121L21.9044 24.6895L21.8864 24.6625L23.2336 24.2314C23.2426 24.2934 23.2426 24.3571 23.2426 24.429C23.2426 24.9499 23.0719 25.4259 22.7306 25.8121ZM23.4402 24.0608L23.4132 23.935L21.5361 24.5368L22.7037 26.1615L22.8025 26.0726C23.2336 25.6235 23.4671 25.0388 23.4671 24.429C23.4671 24.3033 23.4581 24.1775 23.4402 24.0608ZM21.599 23.7644V22.3543C22.1558 22.4801 22.6408 22.8304 22.9372 23.3243L21.599 23.7644ZM23.2066 23.3333C22.8653 22.6866 22.2277 22.2286 21.5092 22.1119L21.3745 22.084V24.0689L23.2695 23.4501L23.2066 23.3333ZM20.2877 26.3779L21.123 25.2194L21.9583 26.369C21.4104 26.6105 20.7997 26.6025 20.2877 26.3779ZM21.581 25.452L21.123 24.8332L19.9465 26.4588L20.0632 26.5216C20.3955 26.6923 20.7458 26.7731 21.123 26.7731C21.4822 26.7731 21.8415 26.6833 22.1828 26.5216L22.2995 26.4588L21.581 25.452ZM21.123 24.0877C20.9344 24.0877 20.7907 24.2404 20.7907 24.429C20.7907 24.5996 20.9434 24.7523 21.123 24.7523C21.3026 24.7523 21.4553 24.5996 21.4553 24.429C21.4553 24.2404 21.3116 24.0877 21.123 24.0877ZM20.656 23.7644L19.3088 23.3243C19.6141 22.8214 20.1081 22.4711 20.656 22.3543V23.7644ZM20.7458 22.1119C20.0363 22.2107 19.3986 22.6687 19.0394 23.3333L18.9765 23.4501L20.144 23.8273L20.5662 23.971L20.8805 24.0689V22.0939L20.7458 22.1119ZM19.5243 25.8121C19.183 25.4259 18.9944 24.9409 18.9944 24.429C18.9944 24.3571 19.0034 24.2853 19.0124 24.2224L19.9285 24.5179L20.3686 24.6625L19.5243 25.8121ZM18.8328 23.9261L18.8058 24.0518C18.7879 24.1685 18.7699 24.2934 18.7699 24.429C18.7699 25.0487 19.0124 25.6325 19.4615 26.0726L19.5513 26.1615L20.2698 25.1655L20.5302 24.8143L20.7188 24.5368L18.8328 23.9261ZM22.7306 25.8121L21.9044 24.6895L21.8864 24.6625L23.2336 24.2314C23.2426 24.2934 23.2426 24.3571 23.2426 24.429C23.2426 24.9499 23.0719 25.4259 22.7306 25.8121ZM23.4402 24.0608L23.4132 23.935L21.5361 24.5368L22.7037 26.1615L22.8025 26.0726C23.2336 25.6235 23.4671 25.0388 23.4671 24.429C23.4671 24.3033 23.4581 24.1775 23.4402 24.0608ZM21.599 23.7644V22.3543C22.1558 22.4801 22.6408 22.8304 22.9372 23.3243L21.599 23.7644ZM23.2066 23.3333C22.8653 22.6866 22.2277 22.2286 21.5092 22.1119L21.3745 22.084V24.0689L23.2695 23.4501L23.2066 23.3333ZM20.2877 26.3779L21.123 25.2194L21.9583 26.369C21.4104 26.6105 20.7997 26.6025 20.2877 26.3779ZM21.581 25.452L21.123 24.8332L19.9465 26.4588L20.0632 26.5216C20.3955 26.6923 20.7458 26.7731 21.123 26.7731C21.4822 26.7731 21.8415 26.6833 22.1828 26.5216L22.2995 26.4588L21.581 25.452ZM21.123 24.0877C20.9344 24.0877 20.7907 24.2404 20.7907 24.429C20.7907 24.5996 20.9434 24.7523 21.123 24.7523C21.3026 24.7523 21.4553 24.5996 21.4553 24.429C21.4553 24.2404 21.3116 24.0877 21.123 24.0877ZM20.656 23.7644L19.3088 23.3243C19.6141 22.8214 20.1081 22.4711 20.656 22.3543V23.7644ZM20.7458 22.1119C20.0363 22.2107 19.3986 22.6687 19.0394 23.3333L18.9765 23.4501L20.144 23.8273L20.5662 23.971L20.8805 24.0689V22.0939L20.7458 22.1119ZM19.5243 25.8121C19.183 25.4259 18.9944 24.9409 18.9944 24.429C18.9944 24.3571 19.0034 24.2853 19.0124 24.2224L19.9285 24.5179L20.3686 24.6625L19.5243 25.8121ZM18.8328 23.9261L18.8058 24.0518C18.7879 24.1685 18.7699 24.2934 18.7699 24.429C18.7699 25.0487 19.0124 25.6325 19.4615 26.0726L19.5513 26.1615L20.2698 25.1655L20.5302 24.8143L20.7188 24.5368L18.8328 23.9261ZM22.7306 25.8121L21.9044 24.6895L21.8864 24.6625L23.2336 24.2314C23.2426 24.2934 23.2426 24.3571 23.2426 24.429C23.2426 24.9499 23.0719 25.4259 22.7306 25.8121ZM23.4402 24.0608L23.4132 23.935L21.5361 24.5368L22.7037 26.1615L22.8025 26.0726C23.2336 25.6235 23.4671 25.0388 23.4671 24.429C23.4671 24.3033 23.4581 24.1775 23.4402 24.0608ZM21.599 23.7644V22.3543C22.1558 22.4801 22.6408 22.8304 22.9372 23.3243L21.599 23.7644ZM23.2066 23.3333C22.8653 22.6866 22.2277 22.2286 21.5092 22.1119L21.3745 22.084V24.0689L23.2695 23.4501L23.2066 23.3333ZM20.2877 26.3779L21.123 25.2194L21.9583 26.369C21.4104 26.6105 20.7997 26.6025 20.2877 26.3779ZM21.581 25.452L21.123 24.8332L19.9465 26.4588L20.0632 26.5216C20.3955 26.6923 20.7458 26.7731 21.123 26.7731C21.4822 26.7731 21.8415 26.6833 22.1828 26.5216L22.2995 26.4588L21.581 25.452ZM21.123 24.0877C20.9344 24.0877 20.7907 24.2404 20.7907 24.429C20.7907 24.5996 20.9434 24.7523 21.123 24.7523C21.3026 24.7523 21.4553 24.5996 21.4553 24.429C21.4553 24.2404 21.3116 24.0877 21.123 24.0877ZM20.656 23.7644L19.3088 23.3243C19.6141 22.8214 20.1081 22.4711 20.656 22.3543V23.7644ZM20.7458 22.1119C20.0363 22.2107 19.3986 22.6687 19.0394 23.3333L18.9765 23.4501L20.144 23.8273L20.5662 23.971L20.8805 24.0689V22.0939L20.7458 22.1119ZM19.5243 25.8121C19.183 25.4259 18.9944 24.9409 18.9944 24.429C18.9944 24.3571 19.0034 24.2853 19.0124 24.2224L19.9285 24.5179L20.3686 24.6625L19.5243 25.8121ZM18.8328 23.9261L18.8058 24.0518C18.7879 24.1685 18.7699 24.2934 18.7699 24.429C18.7699 25.0487 19.0124 25.6325 19.4615 26.0726L19.5513 26.1615L20.2698 25.1655L20.5302 24.8143L20.7188 24.5368L18.8328 23.9261Z" fill="white"/>
<path d="M19.0084 24.2179C19.0012 24.2843 18.9976 24.3535 18.9976 24.4253C18.9976 24.9409 19.1835 25.4295 19.5239 25.8147L20.3664 24.6606L19.9299 24.5223L19.0084 24.2179ZM19.55 26.1632L19.4566 26.0707C19.0156 25.6297 18.7731 25.045 18.7731 24.4253C18.7731 24.2915 18.7848 24.1649 18.8054 24.049L18.8288 23.9215L20.7193 24.5358L20.5343 24.8133L20.2658 25.1645L19.55 26.1632Z" fill="white"/>
<path d="M19.3069 23.3235L20.654 23.7672V22.3535C20.108 22.4721 19.6176 22.8251 19.3069 23.3235ZM20.8786 24.0671L20.5624 23.9747L20.1403 23.83L18.9763 23.4528L19.041 23.3343C19.4012 22.6706 20.0406 22.2116 20.7501 22.1083L20.8786 22.0895V24.0671Z" fill="white"/>
<path d="M20.286 26.3752C20.8016 26.6015 21.4078 26.6096 21.9593 26.3734L21.124 25.2166L20.286 26.3752ZM21.1222 26.7739C20.7495 26.7739 20.3938 26.6877 20.0642 26.518L19.9492 26.4578L21.1213 24.834L21.5793 25.4564L22.2969 26.4596L22.1793 26.518C21.8452 26.685 21.4796 26.7739 21.1222 26.7739Z" fill="white"/>
<path d="M21.6006 22.3552V23.7652L22.9397 23.3234C22.6415 22.833 22.1547 22.4818 21.6006 22.3552ZM21.376 24.0697V22.0876L21.5063 22.1091C22.2275 22.225 22.8615 22.683 23.2046 23.3359L23.2657 23.4536L21.376 24.0697Z" fill="white"/>
<path d="M21.8891 24.6608L21.9071 24.6887L22.7289 25.814C23.0683 25.4234 23.2471 24.9464 23.2471 24.4255C23.2471 24.3582 23.2435 24.2926 23.2363 24.2279L21.8891 24.6608ZM22.7064 26.1643L21.5352 24.536L23.4159 23.9334L23.4393 24.06C23.4608 24.1804 23.4716 24.2998 23.4716 24.4255C23.4716 25.0416 23.2327 25.6254 22.7989 26.0691L22.7064 26.1643Z" fill="white"/>
<path d="M19.0084 24.2179C19.0012 24.2843 18.9976 24.3535 18.9976 24.4253C18.9976 24.9409 19.1835 25.4295 19.5239 25.8147L20.3664 24.6606L19.9299 24.5223L19.0084 24.2179ZM19.55 26.1632L19.4566 26.0707C19.0156 25.6297 18.7731 25.045 18.7731 24.4253C18.7731 24.2915 18.7848 24.1649 18.8054 24.049L18.8288 23.9215L20.7193 24.5358L20.5343 24.8133L20.2658 25.1645L19.55 26.1632Z" fill="white"/>
<path d="M19.3069 23.3235L20.654 23.7672V22.3535C20.108 22.4721 19.6176 22.8251 19.3069 23.3235ZM20.8786 24.0671L20.5624 23.9747L20.1403 23.83L18.9763 23.4528L19.041 23.3343C19.4012 22.6706 20.0406 22.2116 20.7501 22.1083L20.8786 22.0895V24.0671Z" fill="white"/>
<path d="M20.286 26.3752C20.8016 26.6015 21.4078 26.6096 21.9593 26.3734L21.124 25.2166L20.286 26.3752ZM21.1222 26.7739C20.7495 26.7739 20.3938 26.6877 20.0642 26.518L19.9492 26.4578L21.1213 24.834L21.5793 25.4564L22.2969 26.4596L22.1793 26.518C21.8452 26.685 21.4796 26.7739 21.1222 26.7739Z" fill="white"/>
<path d="M21.6006 22.3552V23.7652L22.9397 23.3234C22.6415 22.833 22.1547 22.4818 21.6006 22.3552ZM21.376 24.0697V22.0876L21.5063 22.1091C22.2275 22.225 22.8615 22.683 23.2046 23.3359L23.2657 23.4536L21.376 24.0697Z" fill="white"/>
<path d="M21.8891 24.6608L21.9071 24.6887L22.7289 25.814C23.0683 25.4234 23.2471 24.9464 23.2471 24.4255C23.2471 24.3582 23.2435 24.2926 23.2363 24.2279L21.8891 24.6608ZM22.7064 26.1643L21.5352 24.536L23.4159 23.9334L23.4393 24.06C23.4608 24.1804 23.4716 24.2998 23.4716 24.4255C23.4716 25.0416 23.2327 25.6254 22.7989 26.0691L22.7064 26.1643Z" fill="white"/>
<path d="M45.4791 23.3234L46.8263 23.767V22.3534C46.2793 22.4719 45.7898 22.8249 45.4791 23.3234ZM47.0508 24.067L46.7347 23.9745L46.3125 23.8299L45.1495 23.4527L45.2132 23.3341C45.5734 22.6704 46.2119 22.2124 46.9224 22.1082L47.0508 22.0893V24.067ZM47.7729 22.3552V23.7652L49.112 23.3234C48.8138 22.833 48.327 22.4818 47.7729 22.3552ZM47.5483 24.0697V22.0875L47.6786 22.1091C48.3998 22.225 49.0338 22.683 49.3769 23.3359L49.438 23.4536L47.5483 24.0697ZM47.2942 24.7514C47.1128 24.7514 46.9592 24.6023 46.9592 24.4253C46.9592 24.2403 47.1092 24.0894 47.2942 24.0894C47.4801 24.0894 47.631 24.2403 47.631 24.4253C47.631 24.6023 47.4765 24.7514 47.2942 24.7514ZM45.1809 24.2179C45.1737 24.2843 45.171 24.3535 45.171 24.4253C45.171 24.9409 45.3569 25.4295 45.6964 25.8148L46.5389 24.6607L46.1024 24.5223L45.1809 24.2179ZM45.7225 26.1632L45.6291 26.0707C45.189 25.6297 44.9465 25.045 44.9465 24.4253C44.9465 24.2915 44.9573 24.1649 44.9779 24.049L45.0013 23.9215L46.8918 24.5358L46.7068 24.8133L46.4383 25.1645L45.7225 26.1632ZM48.0612 24.6607L48.0791 24.6885L48.9009 25.8139C49.2404 25.4232 49.4191 24.9462 49.4191 24.4253C49.4191 24.358 49.4156 24.2924 49.4084 24.2278L48.0612 24.6607ZM48.8785 26.1641L47.7073 24.5358L49.588 23.9332L49.6113 24.0598C49.6329 24.1802 49.6437 24.2996 49.6437 24.4253C49.6437 25.0414 49.4048 25.6252 48.971 26.0689L48.8785 26.1641ZM46.4589 26.3752C46.9726 26.6015 47.5798 26.6096 48.1312 26.3734L47.296 25.2166L46.4589 26.3752ZM47.2942 26.7739C46.9215 26.7739 46.5649 26.6877 46.2371 26.518L46.1212 26.4578L47.2933 24.834L47.7513 25.4564L48.4689 26.4596L48.3513 26.518C48.0172 26.685 47.6516 26.7739 47.2942 26.7739ZM47.2942 21.4876C45.6803 21.4876 44.3672 22.8051 44.3672 24.4253C44.3672 26.0402 45.6803 27.3532 47.2942 27.3532C48.9144 27.3532 50.2319 26.0402 50.2319 24.4253C50.2319 22.8051 48.9144 21.4876 47.2942 21.4876ZM47.2942 27.5778C45.5563 27.5778 44.1427 26.1632 44.1427 24.4253C44.1427 22.6812 45.5563 21.263 47.2942 21.263C49.0383 21.263 50.4565 22.6812 50.4565 24.4253C50.4565 26.1632 49.0383 27.5778 47.2942 27.5778Z" fill="white"/>
<path d="M45.1809 24.2179C45.1738 24.2843 45.1711 24.3535 45.1711 24.4253C45.1711 24.9409 45.357 25.4295 45.6965 25.8147L46.5389 24.6606L46.1024 24.5223L45.1809 24.2179ZM45.7225 26.1632L45.6291 26.0707C45.189 25.6297 44.9465 25.045 44.9465 24.4253C44.9465 24.2915 44.9573 24.1649 44.978 24.049L45.0013 23.9215L46.8919 24.5358L46.7069 24.8133L46.4383 25.1645L45.7225 26.1632Z" fill="white"/>
<path d="M45.4794 23.3235L46.8266 23.7672V22.3535C46.2796 22.4721 45.7901 22.8251 45.4794 23.3235ZM47.0511 24.0671L46.735 23.9747L46.3128 23.83L45.1498 23.4528L45.2135 23.3343C45.5737 22.6706 46.2123 22.2125 46.9227 22.1083L47.0511 22.0895V24.0671Z" fill="white"/>
<path d="M46.4591 26.3752C46.9728 26.6015 47.5799 26.6096 48.1314 26.3734L47.2961 25.2166L46.4591 26.3752ZM47.2943 26.7739C46.9207 26.7739 46.565 26.6877 46.2372 26.518L46.1214 26.4578L47.2934 24.834L47.7515 25.4564L48.4691 26.4596L48.3514 26.518C48.0173 26.685 47.6518 26.7739 47.2943 26.7739Z" fill="white"/>
<path d="M47.7727 22.3552V23.7652L49.1118 23.3234C48.8136 22.833 48.3268 22.4818 47.7727 22.3552ZM47.5481 24.0697V22.0876L47.6784 22.1091C48.3996 22.225 49.0336 22.683 49.3767 23.3359L49.4378 23.4536L47.5481 24.0697Z" fill="white"/>
<path d="M48.0612 24.6608L48.0792 24.6887L48.9009 25.814C49.2404 25.4234 49.4192 24.9464 49.4192 24.4255C49.4192 24.3582 49.4156 24.2926 49.4084 24.2279L48.0612 24.6608ZM48.8785 26.1643L47.7073 24.536L49.588 23.9334L49.6114 24.06C49.6329 24.1804 49.6437 24.2998 49.6437 24.4255C49.6437 25.0416 49.4048 25.6254 48.971 26.0691L48.8785 26.1643Z" fill="white"/>
<path d="M45.1809 24.2179C45.1738 24.2843 45.1711 24.3535 45.1711 24.4253C45.1711 24.9409 45.357 25.4295 45.6965 25.8147L46.5389 24.6606L46.1024 24.5223L45.1809 24.2179ZM45.7225 26.1632L45.6291 26.0707C45.189 25.6297 44.9465 25.045 44.9465 24.4253C44.9465 24.2915 44.9573 24.1649 44.978 24.049L45.0013 23.9215L46.8919 24.5358L46.7069 24.8133L46.4383 25.1645L45.7225 26.1632Z" fill="white"/>
<path d="M45.4794 23.3235L46.8266 23.7672V22.3535C46.2796 22.4721 45.7901 22.8251 45.4794 23.3235ZM47.0511 24.0671L46.735 23.9747L46.3128 23.83L45.1498 23.4528L45.2135 23.3343C45.5737 22.6706 46.2123 22.2125 46.9227 22.1083L47.0511 22.0895V24.0671Z" fill="white"/>
<path d="M46.4591 26.3752C46.9728 26.6015 47.5799 26.6096 48.1314 26.3734L47.2961 25.2166L46.4591 26.3752ZM47.2943 26.7739C46.9207 26.7739 46.565 26.6877 46.2372 26.518L46.1214 26.4578L47.2934 24.834L47.7515 25.4564L48.4691 26.4596L48.3514 26.518C48.0173 26.685 47.6518 26.7739 47.2943 26.7739Z" fill="white"/>
<path d="M47.7727 22.3552V23.7652L49.1118 23.3234C48.8136 22.833 48.3268 22.4818 47.7727 22.3552ZM47.5481 24.0697V22.0876L47.6784 22.1091C48.3996 22.225 49.0336 22.683 49.3767 23.3359L49.4378 23.4536L47.5481 24.0697Z" fill="white"/>
<path d="M48.0612 24.6608L48.0792 24.6887L48.9009 25.814C49.2404 25.4234 49.4192 24.9464 49.4192 24.4255C49.4192 24.3582 49.4156 24.2926 49.4084 24.2279L48.0612 24.6608ZM48.8785 26.1643L47.7073 24.536L49.588 23.9334L49.6114 24.06C49.6329 24.1804 49.6437 24.2998 49.6437 24.4255C49.6437 25.0416 49.4048 25.6254 48.971 26.0691L48.8785 26.1643Z" fill="white"/>
<path d="M22.6047 8.79259H11.7644V7.89447H22.6047V8.79259ZM21.4551 11.936H11.7644V11.0379H21.4551V11.936ZM20.6648 13.5077H11.7644V12.6096H20.6648V13.5077ZM11.7644 9.46618H19.7756V10.3643H11.7644V9.46618ZM10.5788 6.41256V15.0615H19.5152L21.482 21.7435L22.1197 15.0615H25.0656V6.41256H10.5788Z" fill="white"/>
<path d="M44.196 12.0483H41.8483V8.01665H44.196V12.0483Z" fill="white"/>
<path d="M47.7152 12.0483H45.3675V7.50023H47.7152V12.0483Z" fill="white"/>
<path d="M51.234 12.0483H48.8881V8.67588H51.234V12.0483Z" fill="white"/>
<path d="M54.7541 12.0483H52.4073V6.32817H54.7541V12.0483Z" fill="white"/>
<path d="M50.0613 7.94922C49.9967 7.94922 49.932 7.93575 49.8718 7.90701L46.494 6.33709L43.126 7.1436C43.0461 7.16157 42.9626 7.15978 42.8844 7.13374L41.7106 6.75561C41.4744 6.68017 41.345 6.42691 41.4205 6.19071C41.4968 5.9545 41.751 5.82425 41.9863 5.90149L43.0398 6.24099L46.4374 5.4282C46.5344 5.40395 46.6377 5.41382 46.7311 5.45782L49.9931 6.97297L53.2937 4.2283C53.3745 4.16094 53.476 4.12412 53.5811 4.12412H54.754C55.0028 4.12412 55.2031 4.3253 55.2031 4.57319C55.2031 4.82197 55.0028 5.02225 54.754 5.02225H53.7427L50.3487 7.84594C50.2661 7.9142 50.1646 7.94922 50.0613 7.94922Z" fill="white"/>
</svg>
